<?xml version="1.0" encoding="utf-8"?>
<!-- Generator: Adobe Illustrator 25.2.0, SVG Export Plug-In . SVG Version: 6.00 Build 0)  -->
<svg version="1.1" id="Layer_1" xmlns="http://www.w3.org/2000/svg" xmlns:xlink="http://www.w3.org/1999/xlink" x="0px" y="0px"
	 viewBox="0 0 1600 900" style="enable-background:new 0 0 1600 900;" xml:space="preserve">
<style type="text/css">
	.st0{fill:#FFFFFF;}
</style>
<g>
	<g>
		<rect x="210" y="305" class="st0" width="160" height="90"/>
	</g>
	<g>
		<rect x="380" y="305" class="st0" width="160" height="90"/>
	</g>
	<g>
		<rect x="550" y="305" class="st0" width="160" height="90"/>
	</g>
	<g>
		<rect x="720" y="305" class="st0" width="160" height="90"/>
	</g>
	<g>
		<rect x="890" y="305" class="st0" width="160" height="90"/>
	</g>
	<g>
		<rect x="1060" y="305" class="st0" width="160" height="90"/>
	</g>
	<g>
		<rect x="1230" y="305" class="st0" width="160" height="90"/>
	</g>
	<g>
		<rect x="295" y="405" class="st0" width="160" height="90"/>
	</g>
	<g>
		<rect x="465" y="405" class="st0" width="160" height="90"/>
	</g>
	<g>
		<rect x="635" y="405" class="st0" width="160" height="90"/>
	</g>
	<g>
		<rect x="805" y="405" class="st0" width="160" height="90"/>
	</g>
	<g>
		<rect x="975" y="405" class="st0" width="160" height="90"/>
	</g>
	<g>
		<rect x="1145" y="405" class="st0" width="160" height="90"/>
	</g>
	<g>
		<rect x="210" y="505" class="st0" width="160" height="90"/>
	</g>
	<g>
		<rect x="380" y="505" class="st0" width="160" height="90"/>
	</g>
	<g>
		<rect x="550" y="505" class="st0" width="160" height="90"/>
	</g>
	<g>
		<rect x="720" y="505" class="st0" width="160" height="90"/>
	</g>
	<g>
		<rect x="890" y="505" class="st0" width="160" height="90"/>
	</g>
	<g>
		<rect x="1060" y="505" class="st0" width="160" height="90"/>
	</g>
	<g>
		<rect x="1230" y="505" class="st0" width="160" height="90"/>
	</g>
	<g>
		<rect x="1313" y="405" class="st0" width="77" height="90"/>
	</g>
	<g>
		<rect x="210" y="405" class="st0" width="77" height="90"/>
	</g>
</g>
</svg>
