<?xml version="1.0" encoding="utf-8"?>
<!-- Generator: Adobe Illustrator 24.1.2, SVG Export Plug-In . SVG Version: 6.00 Build 0)  -->
<svg version="1.1" id="Layer_1" xmlns="http://www.w3.org/2000/svg" xmlns:xlink="http://www.w3.org/1999/xlink" x="0px" y="0px"
	 viewBox="0 0 400 200" style="enable-background:new 0 0 400 200;" xml:space="preserve">
<style type="text/css">
	.st0{fill:#A91C2B;}
	.st1{fill-rule:evenodd;clip-rule:evenodd;fill:#A91C2B;}
	.st2{fill-rule:evenodd;clip-rule:evenodd;}
</style>
<g>
	<g id="Hochschule">
		<polygon class="st0" points="40.7,137.3 39.5,137.3 39.5,141.3 34.3,141.3 34.3,137.3 33,137.3 33,146.5 34.3,146.5 34.3,142.5 
			39.5,142.5 39.5,146.5 40.7,146.5 		"/>
		<path class="st1" d="M44.7,141.9c0,2.5,1.9,4.6,4.8,4.6c3.1,0,5-2.3,5-4.6c0-2.5-1.9-4.6-5-4.6C46.6,137.1,44.7,139.4,44.7,141.9
			L44.7,141.9z M46,141.9c0-2.1,1.5-3.6,3.6-3.6s3.6,1.5,3.6,3.6s-1.5,3.6-3.6,3.6C47.4,145.2,46,143.8,46,141.9L46,141.9z"/>
		<path class="st1" d="M66,137.9c-1.3-0.4-2.1-0.8-3.1-0.8c-2.9,0-5,2.1-5,4.8c0,1.9,1.5,4.6,5,4.6c1.5,0,2.3-0.4,3.3-0.8v-1.5
			c-1,0.6-2.1,1-3.1,1c-2.1,0-3.8-1.5-3.8-3.6s1.5-3.6,3.6-3.6c1,0,2.1,0.2,3.1,1V137.9L66,137.9z"/>
		<polygon class="st0" points="77.7,137.3 76.4,137.3 76.4,141.3 71.2,141.3 71.2,137.3 70,137.3 70,146.5 71.2,146.5 71.2,142.5 
			76.4,142.5 76.4,146.5 77.7,146.5 		"/>
		<path class="st1" d="M86.3,137.7c-0.6-0.4-1.3-0.6-2.1-0.6c-1.7,0-2.7,1-2.7,2.5c0,2.5,4,2.7,4,4.6c0,0.4-0.4,1-1.5,1
			c-0.8,0-1.7-0.4-2.5-1.3v1.7c0.8,0.6,1.7,0.8,2.5,0.8c1.5,0,2.5-1,2.5-2.5c0-2.9-4-2.9-4-4.6c0-0.6,0.6-1,1.5-1
			c0.6,0,1.5,0.2,2.1,1v-1.7H86.3z"/>
		<path class="st1" d="M98.2,137.9c-1.3-0.4-2.1-0.8-3.1-0.8c-2.9,0-5,2.1-5,4.8c0,1.9,1.5,4.6,4.8,4.6c1.5,0,2.5-0.4,3.3-0.8v-1.5
			c-1,0.6-2.1,1-3.1,1c-2.1,0-3.8-1.5-3.8-3.6s1.5-3.6,3.6-3.6c1,0,2.1,0.2,3.1,1L98.2,137.9L98.2,137.9z"/>
		<polygon class="st0" points="109.9,137.3 108.6,137.3 108.6,141.3 103.4,141.3 103.4,137.3 102.1,137.3 102.1,146.5 103.4,146.5 
			103.4,142.5 108.6,142.5 108.6,146.5 109.9,146.5 		"/>
		<path class="st0" d="M121.8,137.3h-1.3v5.2c0,0.8,0,1.5-0.6,2.1c-0.4,0.4-1,0.6-2.1,0.6c-0.8,0-1.5-0.2-1.9-0.8
			c-0.4-0.4-0.6-0.8-0.6-1.9v-5.4H114v5.8c0,2.5,1.9,3.6,3.8,3.6c2.7,0,4-1.5,4-3.8L121.8,137.3L121.8,137.3z"/>
		<polygon class="st0" points="127.2,137.3 126,137.3 126,146.5 131.4,146.5 131.4,145.2 127.2,145.2 		"/>
		<polygon class="st0" points="139.9,137.3 134.7,137.3 134.7,146.5 139.9,146.5 139.9,145.2 136,145.2 136,142.3 139.7,142.3 
			139.7,141.3 136,141.3 136,138.5 139.9,138.5 		"/>
		<polygon class="st0" points="154.6,137.3 149.8,137.3 149.8,146.5 151,146.5 151,142.1 154.6,142.1 154.6,141 151,141 151,138.5 
			154.6,138.5 		"/>
		<path class="st1" d="M160.6,135c-0.4,0-0.6,0.2-0.6,0.6s0.2,0.6,0.6,0.6s0.6-0.2,0.6-0.6C161.3,135.4,161,135,160.6,135L160.6,135
			z M163.1,135c-0.4,0-0.6,0.2-0.6,0.6s0.2,0.6,0.6,0.6c0.4,0,0.6-0.2,0.6-0.6C163.8,135.4,163.6,135,163.1,135L163.1,135z
			 M165.8,137.3h-1.3v5.2c0,0.8-0.2,1.5-0.6,2.1c-0.4,0.4-1,0.6-2.1,0.6c-0.8,0-1.5-0.2-1.9-0.8c-0.4-0.4-0.6-0.8-0.6-1.9v-5.4h-1.3
			v5.8c0,2.5,1.9,3.6,3.8,3.6c2.7,0,4-1.5,4-3.8V137.3L165.8,137.3z"/>
		<path class="st1" d="M170,137.3v9.2h1.3v-4h0.6c0.6,0,1.3,0.2,2.5,2.1l1.3,1.9h1.7c-0.6-0.8-0.8-1.3-1.3-1.9
			c-0.6-1-1.3-2.1-2.1-2.5c1-0.4,1.5-1.3,1.5-2.3c0-1.7-1.3-2.5-2.9-2.5H170L170,137.3z M171.3,138.3h0.8c1.3,0,1.7,0.4,1.9,1.5
			c0,0.8-0.4,1.5-1.9,1.5h-0.8V138.3L171.3,138.3z"/>
		<path class="st1" d="M186.3,137.3v9.2h1.3v-4h0.6c0.6,0,1.3,0.2,2.5,2.1l1.3,1.9h1.7c-0.6-0.8-0.8-1.3-1.3-1.9
			c-0.6-1-1.3-2.1-2.1-2.5c1-0.4,1.5-1.3,1.5-2.3c0-1.7-1.3-2.5-2.9-2.5H186.3L186.3,137.3z M187.6,138.3h0.8c1.3,0,1.7,0.4,1.9,1.5
			c0,0.8-0.4,1.5-1.9,1.5h-0.8V138.3L187.6,138.3z"/>
		<polygon class="st0" points="201.8,137.3 196.6,137.3 196.6,146.5 202,146.5 202,145.2 198,145.2 198,142.3 201.6,142.3 
			201.6,141.3 198,141.3 198,138.5 201.8,138.5 		"/>
		<path class="st1" d="M213.3,137.9c-1.3-0.4-2.3-0.8-3.1-0.8c-2.9,0-5,2.1-5,4.8c0,1.9,1.5,4.6,4.8,4.6c1.5,0,2.5-0.4,3.3-0.8v-1.5
			c-1,0.6-2.1,1-3.1,1c-2.3,0-3.8-1.5-3.8-3.6s1.5-3.6,3.6-3.6c1,0,2.1,0.2,3.1,1v-1.3H213.3z"/>
		<polygon class="st0" points="225,137.3 223.7,137.3 223.7,141.3 218.7,141.3 218.7,137.3 217.2,137.3 217.2,146.5 218.7,146.5 
			218.7,142.5 223.7,142.5 223.7,146.5 225,146.5 		"/>
		<polygon class="st0" points="236.2,137.3 228.5,137.3 228.5,138.5 231.6,138.5 231.6,146.5 233.1,146.5 233.1,138.5 236.2,138.5 
					"/>
		<path class="st1" d="M244,137.7c-0.6-0.4-1.3-0.6-2.1-0.6c-1.7,0-2.7,1-2.7,2.5c0,2.5,4,2.7,4,4.6c0,0.4-0.4,1-1.5,1
			c-0.8,0-1.7-0.4-2.5-1.3v1.7c0.8,0.6,1.7,0.8,2.5,0.8c1.5,0,2.5-1,2.5-2.5c0-2.9-4-2.9-4-4.6c0-0.6,0.6-1,1.5-1
			c0.6,0,1.5,0.2,2.1,1v-1.7H244z"/>
		<polygon class="st0" points="260.9,137.3 259.6,137.3 257.1,143.6 254.6,137.3 253.4,137.3 250.9,143.6 248.4,137.3 247.1,137.3 
			250.7,146.5 251.1,146.5 254,139 256.9,146.5 257.3,146.5 		"/>
		<polygon class="st0" points="265.5,137.3 264.2,137.3 264.2,146.5 265.5,146.5 		"/>
		<path class="st1" d="M274.3,137.7c-0.6-0.4-1.3-0.6-2.1-0.6c-1.7,0-2.7,1-2.7,2.5c0,2.5,4,2.7,4,4.6c0,0.4-0.4,1-1.5,1
			c-0.8,0-1.7-0.4-2.3-1.3v1.7c0.8,0.6,1.7,0.8,2.5,0.8c1.5,0,2.5-1,2.5-2.5c0-2.9-4-2.9-4-4.6c0-0.6,0.6-1,1.5-1
			c0.6,0,1.3,0.2,2.1,1L274.3,137.7L274.3,137.7z"/>
		<path class="st1" d="M282.6,137.7c-0.6-0.4-1.3-0.6-2.1-0.6c-1.7,0-2.7,1-2.7,2.5c0,2.5,4,2.7,4,4.6c0,0.4-0.4,1-1.5,1
			c-0.8,0-1.7-0.4-2.3-1.3v1.7c0.8,0.6,1.7,0.8,2.5,0.8c1.5,0,2.5-1,2.5-2.5c0-2.9-4-2.9-4-4.6c0-0.6,0.6-1,1.5-1
			c0.6,0,1.3,0.2,2.1,1L282.6,137.7L282.6,137.7z"/>
		<polygon class="st0" points="291.8,137.3 286.6,137.3 286.6,146.5 292,146.5 292,145.2 288,145.2 288,142.3 291.6,142.3 
			291.6,141.3 288,141.3 288,138.5 291.8,138.5 		"/>
		<polygon class="st0" points="304.1,137.3 302.9,137.3 302.9,144.4 296.6,137.3 295.6,137.3 295.6,146.5 296.8,146.5 296.8,139.4 
			302.9,146.5 304.1,146.5 		"/>
		<path class="st1" d="M312.7,137.7c-0.6-0.4-1.3-0.6-2.1-0.6c-1.7,0-2.7,1-2.7,2.5c0,2.5,4,2.7,4,4.6c0,0.4-0.4,1-1.5,1
			c-0.8,0-1.7-0.4-2.3-1.3v1.7c0.8,0.6,1.7,0.8,2.5,0.8c1.5,0,2.5-1,2.5-2.5c0-2.9-4-2.9-4-4.6c0-0.6,0.6-1,1.5-1
			c0.6,0,1.3,0.2,2.1,1L312.7,137.7L312.7,137.7z"/>
		<path class="st1" d="M324.4,137.9c-1.3-0.4-2.3-0.8-3.1-0.8c-2.9,0-5,2.1-5,4.8c0,1.9,1.5,4.6,5,4.6c1.5,0,2.3-0.4,3.3-0.8v-1.5
			c-1,0.6-2.1,1-3.1,1c-2.3,0-3.8-1.5-3.8-3.6s1.5-3.6,3.6-3.6c1,0,2.1,0.2,3.1,1V137.9L324.4,137.9z"/>
		<polygon class="st0" points="336.1,137.3 334.8,137.3 334.8,141.3 329.8,141.3 329.8,137.3 328.4,137.3 328.4,146.5 329.8,146.5 
			329.8,142.5 334.8,142.5 334.8,146.5 336.1,146.5 		"/>
		<path class="st1" d="M344.2,137.3h-0.8l-4,9.2h1.3l1.3-2.7h4l1.3,2.7h1.3L344.2,137.3L344.2,137.3z M343.8,139.2l1.5,3.3h-2.9
			L343.8,139.2L343.8,139.2z"/>
		<polygon class="st0" points="356.6,137.3 351.7,137.3 351.7,146.5 353,146.5 353,142.1 356.6,142.1 356.6,141 353,141 353,138.5 
			356.6,138.5 		"/>
		<polygon class="st0" points="367,137.3 359.5,137.3 359.5,138.5 362.6,138.5 362.6,146.5 363.9,146.5 363.9,138.5 367,138.5 		"/>
	</g>
	<g id="Bucerius">
		<path d="M141.6,111h-2.1v8.4c0,1.3-0.2,2.3-0.8,3.1c-0.6,0.6-1.7,1-3.3,1c-1.3,0-2.3-0.4-3.1-1.3c-0.6-0.6-0.8-1.3-0.8-2.9V111
			h-2.1v9c0,4,2.9,5.6,5.8,5.6c4.2,0,6.3-2.3,6.3-5.8V111H141.6z"/>
		<path class="st2" d="M160.2,111.8c-1-0.6-2.1-1-3.1-1c-2.5,0-4.4,1.5-4.4,3.8c0,4,6.1,4.2,6.1,7.1c0,0.8-0.6,1.9-2.3,1.9
			c-1.5,0-2.7-0.6-3.8-2.1v2.7c1.3,0.8,2.5,1.3,4,1.3c2.3,0,4-1.7,4-3.8c0-4.6-6.1-4.6-6.1-7.3c0-1,0.8-1.7,2.3-1.7
			c1,0,2.1,0.4,3.3,1.5V111.8L160.2,111.8z"/>
		<path class="st2" d="M279.5,111.8c-1-0.6-2.1-1-3.1-1c-2.5,0-4.4,1.5-4.4,3.8c0,4,6.1,4.2,6.1,7.1c0,0.8-0.8,1.9-2.3,1.9
			c-1.5,0-2.7-0.6-3.8-2.1v2.7c1.3,0.8,2.5,1.3,4,1.3c2.3,0,4-1.7,4-3.8c0-4.6-6.1-4.6-6.1-7.3c0-1,0.8-1.7,2.3-1.7
			c1,0,2.1,0.4,3.3,1.5L279.5,111.8L279.5,111.8z"/>
		<path d="M303.3,112c-1.9-0.8-3.3-1.3-4.8-1.3c-4.6,0-7.7,3.1-7.7,7.5c0,2.9,2.3,7.1,7.7,7.1c2.3,0,3.8-0.4,5.2-1.3V122
			c-1.7,1-3.3,1.7-5,1.7c-3.3,0-5.8-2.3-5.8-5.4c0-3.1,2.5-5.4,5.6-5.4c1.7,0,3.1,0.4,5,1.5V112H303.3z"/>
		<polygon points="327.1,111 325,111 325,117.2 317.1,117.2 317.1,111 315,111 315,125.4 317.1,125.4 317.1,119.1 325,119.1 
			325,125.4 327.1,125.4 		"/>
		<path class="st2" d="M338.6,118.3c0,3.8,2.9,7.3,7.5,7.3c4.8,0,7.7-3.6,7.7-7.3c0-4-2.9-7.3-7.7-7.3
			C341.5,111,338.6,114.3,338.6,118.3L338.6,118.3z M340.7,118.3c0-3.1,2.3-5.4,5.4-5.4c3.1,0,5.6,2.3,5.6,5.4
			c0,3.1-2.3,5.4-5.6,5.4C343,123.7,340.7,121.2,340.7,118.3L340.7,118.3z"/>
		<path class="st2" d="M364.7,118.3c0,3.8,2.9,7.3,7.5,7.3c4.8,0,7.7-3.6,7.7-7.3c0-4-2.9-7.3-7.7-7.3
			C367.8,111,364.7,114.3,364.7,118.3L364.7,118.3z M366.8,118.3c0-3.1,2.3-5.4,5.4-5.4c3.1,0,5.6,2.3,5.6,5.4
			c0,3.1-2.3,5.4-5.6,5.4C369.3,123.7,366.8,121.2,366.8,118.3L366.8,118.3z"/>
		<polygon points="393.5,111 391.4,111 391.4,125.4 400,125.4 400,123.5 393.5,123.5 		"/>
		<polygon points="189.2,111 187.2,111 187.2,125.4 195.5,125.4 195.5,123.5 189.2,123.5 		"/>
		<path class="st2" d="M212.4,111H211l-6.3,14.4h2.1l1.9-4.2h6.1l1.9,4.2h2.1L212.4,111L212.4,111z M211.6,114.1l2.3,5.2h-4.4
			L211.6,114.1L211.6,114.1z"/>
		<polygon points="247.7,111 245.6,111 241.9,120.8 237.9,111 235.8,111 232.1,120.8 228.1,111 226,111 231.9,125.4 232.3,125.4 
			236.9,113.7 241.7,125.4 241.9,125.4 		"/>
		<path class="st2" d="M91.7,111v14.2h2.1v-6.3h0.8c1,0,1.9,0.4,3.8,3.3l1.9,2.9h2.5c-1-1.5-1.3-1.9-1.9-2.7c-1-1.7-1.9-3.1-3.1-4
			c1.5-0.6,2.3-1.9,2.3-3.6c0-2.5-1.9-4-4.6-4L91.7,111L91.7,111z M93.8,112.8H95c2.1,0,2.7,0.8,2.7,2.1s-0.6,2.3-2.7,2.3h-1.3
			V112.8L93.8,112.8z"/>
		<polygon points="116.3,111 114.3,111 114.3,125.4 116.3,125.4 		"/>
		<path class="st2" d="M0,125.4h4.8c3.6,0,4.8-2.1,4.8-3.8c0-1.9-1.3-3.3-3.3-3.8l0,0c1.5-0.6,2.1-1.7,2.1-3.1
			c0-1.9-1.3-3.6-4.4-3.6H0V125.4L0,125.4z M2.1,112.8H4c1.9,0,2.5,0.8,2.5,2.1c0,1.5-1,2.3-2.9,2.3H2.1V112.8L2.1,112.8z
			 M2.1,118.9h2.5c2.1,0,3.1,0.8,3.1,2.3c0,1-0.6,2.3-3.1,2.3H2.1V118.9L2.1,118.9z"/>
		<path d="M56.4,112c-1.9-0.8-3.3-1.3-4.8-1.3c-4.6,0-7.7,3.1-7.7,7.5c0,2.9,2.3,7.1,7.7,7.1c2.3,0,3.8-0.4,5.2-1.3V122
			c-1.7,1-3.3,1.7-5,1.7c-3.3,0-5.8-2.3-5.8-5.4c0-3.1,2.5-5.4,5.6-5.4c1.7,0,3.1,0.4,5,1.5L56.4,112L56.4,112z"/>
		<path d="M33.6,111h-2.1v8.4c0,1.3-0.2,2.3-0.8,3.1c-0.6,0.6-1.9,1-3.3,1c-1.3,0-2.3-0.4-3.1-1.3c-0.6-0.6-0.8-1.3-0.8-2.9V111
			h-2.1v9c0,4,2.9,5.6,5.8,5.6c4.2,0,6.3-2.3,6.3-5.8V111H33.6z"/>
		<polygon points="77.9,111 70,111 70,125.4 78.1,125.4 78.1,123.5 71.9,123.5 71.9,119.1 77.7,119.1 77.7,117.2 71.9,117.2 
			71.9,112.8 77.9,112.8 		"/>
	</g>
	<g id="Waage">
		<polygon class="st0" points="116.3,59.4 185.7,59.4 185.7,79.4 116.3,79.4 		"/>
		<polygon class="st0" points="214.3,59.4 283.7,59.4 283.7,79.4 214.3,79.4 		"/>
		<polygon class="st0" points="189.9,83 189.9,48.9 210.1,48.9 210.1,83 		"/>
	</g>
</g>
</svg>
