<?xml version="1.0" encoding="utf-8"?>
<!-- Generator: Adobe Illustrator 25.2.0, SVG Export Plug-In . SVG Version: 6.00 Build 0)  -->
<svg version="1.1" id="Layer_1" xmlns="http://www.w3.org/2000/svg" xmlns:xlink="http://www.w3.org/1999/xlink" x="0px" y="0px"
	 viewBox="0 0 1600 900" style="enable-background:new 0 0 1600 900;" xml:space="preserve">
<style type="text/css">
	.st0{fill:url(#SVGID_1_);}
	.st1{fill:url(#SVGID_2_);}
	.st2{fill:url(#SVGID_3_);}
	.st3{fill:url(#SVGID_4_);}
	.st4{fill:url(#SVGID_5_);}
	.st5{fill:url(#SVGID_6_);}
	.st6{fill:url(#SVGID_7_);}
	.st7{fill:url(#SVGID_8_);}
	.st8{fill:url(#SVGID_9_);}
	.st9{fill:url(#SVGID_10_);}
	.st10{fill:url(#SVGID_11_);}
</style>
<g>
	
		<linearGradient id="SVGID_1_" gradientUnits="userSpaceOnUse" x1="234.1956" y1="381.0164" x2="1363.7798" y2="580.1202" gradientTransform="matrix(1 0 0 -1 0 899.1)">
		<stop  offset="0" style="stop-color:#5D0749"/>
		<stop  offset="0.5092" style="stop-color:#0093D4"/>
		<stop  offset="1" style="stop-color:#0094AE"/>
	</linearGradient>
	<path class="st0" d="M499.1,463.8c-1.1-12-4-22.2-8.3-29.6c-8.8-15.9-25.7-25.1-46.2-25.1c-37,0-62.4,29.9-62.4,73.8
		c0,42.4,24.2,69.5,62.7,69.5c20.2,0,35.9-6.3,51.6-19.9v-20.8c-16.2,14.2-31.9,21.4-47.6,21.4c-13.4,0-24.8-5.4-32.5-15.7
		c-7.1-9.7-10-20.8-10-38.7h93.2C499.4,470.9,499.4,467.5,499.1,463.8z M407.9,462.9c3.7-24.5,16.5-38.4,35.6-38.4
		c19.4,0,31.1,14,32.8,38.4H407.9z"/>
	
		<linearGradient id="SVGID_2_" gradientUnits="userSpaceOnUse" x1="236.2594" y1="369.5277" x2="1365.7583" y2="568.6165" gradientTransform="matrix(1 0 0 -1 0 899.1)">
		<stop  offset="0" style="stop-color:#5D0749"/>
		<stop  offset="0.5092" style="stop-color:#0093D4"/>
		<stop  offset="1" style="stop-color:#0094AE"/>
	</linearGradient>
	<path class="st1" d="M699.4,521.3V347.6l-42.5,4.3v12.2l8.5-0.3c9.1,0,11.4,1.7,11.4,8.8v3.1v51.6c-9.4-12-22.2-18.2-37.9-18.2
		c-35.6,0-60.4,30.2-60.4,74.3c0,22.2,6.3,40.1,18.5,53.3c9.4,10,21.7,14.8,37.9,14.8c19.4,0,32.2-7.4,41.9-23.4
		c0.6,9.7,0.9,12.5,2.3,19.9h39.3v-12.8c-4,0-5.1-0.1-8.8-0.1C700.5,535.2,699.4,533.5,699.4,521.3z M667.8,519
		c-7.1,9.1-16.5,14-27.1,14c-23.4,0-37.9-19.4-37.9-51c0-34.5,13.7-54.7,37-54.7c10.3,0,19.9,4,26.2,11.1
		c9.1,10,12.8,21.9,12.8,40.7C678.9,497.1,675.5,508.8,667.8,519z"/>
	
		<linearGradient id="SVGID_3_" gradientUnits="userSpaceOnUse" x1="248.7704" y1="298.4727" x2="1378.3484" y2="497.5755" gradientTransform="matrix(1 0 0 -1 0 899.1)">
		<stop  offset="0" style="stop-color:#5D0749"/>
		<stop  offset="0.5092" style="stop-color:#0093D4"/>
		<stop  offset="1" style="stop-color:#0094AE"/>
	</linearGradient>
	<path class="st2" d="M949.8,475.4l-13.7-6.3l-11.1-4.8c-15.4-7.1-20.8-12.8-20.8-22.2c0-11.7,9.7-19.4,24.5-19.4
		c10,0,18.5,3.1,22.5,8c1.7,2.3,2.6,6.3,2.6,12.2v10h17.4v-35.3c-12-5.7-25.9-8.5-41.3-8.5c-28.2,0-46.7,14.5-46.7,37
		c0,8.5,3.1,16.2,9.1,22.2c5.4,5.7,11.7,9.4,26.5,16.2l13.7,6.3c17.1,7.7,23.1,14,23.1,24.5c0,14-10.8,22.5-28.2,22.5
		c-10,0-18.8-2.6-23.4-7.1c-2.6-2.8-4-8-4-14.8v-10.8h-18.5v38.4c13.4,5.4,31.6,8.8,45.6,8.8c31.1,0,51-16,51-40.4
		C978,496.2,969.2,484.9,949.8,475.4z"/>
	
		<linearGradient id="SVGID_4_" gradientUnits="userSpaceOnUse" x1="257.0149" y1="251.7662" x2="1386.5952" y2="450.8693" gradientTransform="matrix(1 0 0 -1 0 899.1)">
		<stop  offset="0" style="stop-color:#5D0749"/>
		<stop  offset="0.5092" style="stop-color:#0093D4"/>
		<stop  offset="1" style="stop-color:#0094AE"/>
	</linearGradient>
	<path class="st3" d="M1255.2,463.8c-1.1-12-4-22.2-8.3-29.6c-8.8-15.9-25.6-25.1-46.2-25.1c-37,0-62.4,29.9-62.4,73.8
		c0,42.4,24.2,69.5,62.7,69.5c20.2,0,35.9-6.3,51.6-19.9v-20.8c-16.2,14.2-31.9,21.4-47.6,21.4c-13.4,0-24.8-5.4-32.5-15.7
		c-7.1-9.7-10-20.8-10-38.7h93.2C1255.6,470.9,1255.6,467.5,1255.2,463.8z M1164.1,462.9c3.7-24.5,16.5-38.4,35.6-38.4
		c19.4,0,31.1,14,32.8,38.4H1164.1z"/>
	
		<linearGradient id="SVGID_5_" gradientUnits="userSpaceOnUse" x1="231.2122" y1="398.0263" x2="1360.6107" y2="597.0974" gradientTransform="matrix(1 0 0 -1 0 899.1)">
		<stop  offset="0" style="stop-color:#5D0749"/>
		<stop  offset="0.5092" style="stop-color:#0093D4"/>
		<stop  offset="1" style="stop-color:#0094AE"/>
	</linearGradient>
	<path class="st4" d="M358.3,523V413.1h-38.9v16.2h6.9c8.3,0.3,9.7,2.2,9.7,11.9V523c0,9.4-2,12-8.5,12.2h-8.8V548h57.1v-12.8H367
		C360.3,535,358.3,532.4,358.3,523z"/>
	
		<linearGradient id="SVGID_6_" gradientUnits="userSpaceOnUse" x1="224.1562" y1="437.966" x2="1353.6527" y2="637.0543" gradientTransform="matrix(1 0 0 -1 0 899.1)">
		<stop  offset="0" style="stop-color:#5D0749"/>
		<stop  offset="0.5092" style="stop-color:#0093D4"/>
		<stop  offset="1" style="stop-color:#0094AE"/>
	</linearGradient>
	<path class="st5" d="M281.1,381.5c4.9-12.8,15.7-20,30-20c8.6,0,16.5,2.6,19.7,6.3c2.6,3.1,3.7,6.6,3.7,13.4v5.4h17.7v-28.2
		c-12.8-7.7-24.5-10.8-40.5-10.8c-22.2,0-39,7.7-48.7,21.9c-5.7,8.8-8.3,20.5-8.3,38.4v5.1h-18v16.2h18v92
		c0,12.5-1.1,13.9-11.4,13.9h-6.6v12.8h58.7v-12.8h-5.1h-3.7c-6.5-0.3-8.5-2.8-8.5-12.2v-19.6l0,0v-74.1h29.3V413H278v-6.8
		C278,396,279.2,386.6,281.1,381.5z"/>
	
		<linearGradient id="SVGID_7_" gradientUnits="userSpaceOnUse" x1="246.1911" y1="313.6103" x2="1375.5892" y2="512.6813" gradientTransform="matrix(1 0 0 -1 0 899.1)">
		<stop  offset="0" style="stop-color:#5D0749"/>
		<stop  offset="0.5092" style="stop-color:#0093D4"/>
		<stop  offset="1" style="stop-color:#0094AE"/>
	</linearGradient>
	<path class="st6" d="M852.2,523V413.1h-38.9v16.2h6.9c8.3,0.3,9.7,2.2,9.7,11.9V523c0,9.4-2,12-8.5,12.2h-8.8V548h57.1v-12.8H861
		C854.2,535,852.2,532.4,852.2,523z"/>
	
		<linearGradient id="SVGID_8_" gradientUnits="userSpaceOnUse" x1="239.0922" y1="353.46" x2="1368.6224" y2="552.5543" gradientTransform="matrix(1 0 0 -1 0 899.1)">
		<stop  offset="0" style="stop-color:#5D0749"/>
		<stop  offset="0.5092" style="stop-color:#0093D4"/>
		<stop  offset="1" style="stop-color:#0094AE"/>
	</linearGradient>
	<path class="st7" d="M775,381.5c4.8-12.8,15.7-19.9,29.9-19.9c8.6,0,16.5,2.6,19.7,6.3c2.6,3.1,3.7,6.6,3.7,13.4v5.4H846v-28.2
		c-12.8-7.7-24.5-10.8-40.5-10.8c-22.2,0-39,7.7-48.7,21.9c-5.7,8.8-8.3,20.5-8.3,38.4v5.1h-18v16.2h18v92
		c0,12.5-1.1,13.9-11.4,13.9h-6.6V548h58.7v-12.7h-8.8c-6.5-0.3-8.5-2.8-8.5-12.2v0.1v-93.8h29.3v-16.2H772v-6.8
		C772,396,773,386.6,775,381.5z"/>
	
		<linearGradient id="SVGID_9_" gradientUnits="userSpaceOnUse" x1="258.5154" y1="233.251" x2="1388.048" y2="432.3457" gradientTransform="matrix(1 0 0 -1 0 899.1)">
		<stop  offset="0" style="stop-color:#5D0749"/>
		<stop  offset="0.5092" style="stop-color:#0093D4"/>
		<stop  offset="1" style="stop-color:#0094AE"/>
	</linearGradient>
	<path class="st8" d="M1348.9,411.4c-16.2,0-29.6,8.8-39.3,26.5c-0.3-8-1.1-15.1-2.8-24.8l-37.6,4v12.5h7.7c10,0,11.1,1.4,11.1,12.2
		V525c-0.3,7.7-2.4,10-8.5,10.2h-8.8V548h56.3v-12.8h-8.8c-6.5-0.3-8.5-2.8-8.5-12.2l0,0v-12.7v-22.1c0-14,2.3-26.8,6.3-36.2
		c6-13.7,14.8-22.2,23.4-22.2c5.7,0,8.3,2.8,8.3,9.1v4h15.7v-28.2C1358.1,412.2,1354.6,411.4,1348.9,411.4z"/>
	
		<linearGradient id="SVGID_10_" gradientUnits="userSpaceOnUse" x1="231.8329" y1="394.7755" x2="1361.1932" y2="593.8398" gradientTransform="matrix(1 0 0 -1 0 899.1)">
		<stop  offset="0" style="stop-color:#5D0749"/>
		<stop  offset="0.5092" style="stop-color:#0093D4"/>
		<stop  offset="1" style="stop-color:#0094AE"/>
	</linearGradient>
	<path class="st9" d="M551.5,523v-21.8l0,0V347.6l-42.7,4.6v12.5l8.5-0.3c9.1,0,11.4,1.7,11.4,8.8v2.9v0.1v148.3
		c-0.2,8.2-2.3,10.6-8.5,10.8h-8.8v12.8h57.5v-12.8h-8.8C553.5,535,551.5,532.4,551.5,523z"/>
	
		<linearGradient id="SVGID_11_" gradientUnits="userSpaceOnUse" x1="247.4208" y1="305.9223" x2="1377.0614" y2="505.036" gradientTransform="matrix(1 0 0 -1 0 899.1)">
		<stop  offset="0" style="stop-color:#5D0749"/>
		<stop  offset="0.5092" style="stop-color:#0093D4"/>
		<stop  offset="1" style="stop-color:#0094AE"/>
	</linearGradient>
	<path class="st10" d="M1114.2,523v-62.4c0-12.5-1.7-23.4-4.8-29.3c-6.3-13.7-20.2-21.1-38.5-21.1c-18.5,0-31.3,6.5-41.9,21.6v-84.3
		l-42.5,4.6v12.5l8.6-0.3c9.1,0,11.4,1.7,11.4,8.8v150.4c-0.1,9-2.1,11.5-8.5,11.7h-8.8V548h17.4l0,0h17.3l0,0h22.5v-12.8h-8.8
		c-6.5-0.3-8.5-2.8-8.5-12.2v-48.2c0-29.6,12.8-46.1,35.6-46.1c9.7,0,17.4,4,21.9,10.5c2.9,4.3,4.3,12.5,4.3,23.4v57.5v4.5
		c-0.2,8-2.4,10.3-8.5,10.6h-8.8V548h58.1v-12.8h-8.8C1116.2,535,1114.2,532.4,1114.2,523z"/>
</g>
</svg>
