<?xml version="1.0" encoding="utf-8"?>
<!-- Generator: Adobe Illustrator 25.2.0, SVG Export Plug-In . SVG Version: 6.00 Build 0)  -->
<svg version="1.1" id="Layer_1" xmlns="http://www.w3.org/2000/svg" xmlns:xlink="http://www.w3.org/1999/xlink" x="0px" y="0px"
	 viewBox="0 0 1600 900" style="enable-background:new 0 0 1600 900;" xml:space="preserve">
<style type="text/css">
	.st0{fill:none;}
	.st1{fill:#FFFFFF;}
	.st2{fill:none;stroke:#FFFFFF;stroke-width:18;stroke-miterlimit:10;}
</style>
<g>
	<circle class="st0" cx="823.4" cy="354.7" r="46.9"/>
	<path class="st1" d="M823.4,316.7c21,0,38,17,38,38c0,21-17,38-38,38c-21,0-38-17-38-38C785.4,333.7,802.4,316.7,823.4,316.7
		 M823.4,298.8c-30.8,0-55.8,25-55.8,55.8s25,55.8,55.8,55.8s55.8-25,55.8-55.8S854.2,298.8,823.4,298.8L823.4,298.8z"/>
</g>
<g>
	<path class="st1" d="M684,477.5c14.7,0,26.8,12.1,26.8,26.8c0,14.7-12.1,26.8-26.8,26.8s-26.8-12.1-26.8-26.8
		C657.2,489.6,669.3,477.5,684,477.5 M684,459.6c-24.6,0-44.7,20.1-44.7,44.7c0,24.6,20.1,44.7,44.7,44.7
		c24.6,0,44.7-20.1,44.7-44.7C728.7,479.7,708.6,459.6,684,459.6L684,459.6z"/>
</g>
<g>
	<path class="st1" d="M776.9,477.5c14.7,0,26.8,12.1,26.8,26.8c0,14.7-12.1,26.8-26.8,26.8c-14.7,0-26.8-12.1-26.8-26.8
		C750.1,489.6,762.2,477.5,776.9,477.5 M776.9,459.6c-24.6,0-44.7,20.1-44.7,44.7c0,24.6,20.1,44.7,44.7,44.7
		c24.6,0,44.7-20.1,44.7-44.7C821.6,479.7,801.5,459.6,776.9,459.6L776.9,459.6z"/>
</g>
<g>
	<path class="st1" d="M869.9,477.5c14.7,0,26.8,12.1,26.8,26.8c0,14.7-12.1,26.8-26.8,26.8s-26.8-12.1-26.8-26.8
		C843.1,489.6,855.1,477.5,869.9,477.5 M869.9,459.6c-24.6,0-44.7,20.1-44.7,44.7c0,24.6,20.1,44.7,44.7,44.7s44.7-20.1,44.7-44.7
		C914.5,479.7,894.4,459.6,869.9,459.6L869.9,459.6z"/>
</g>
<g>
	<path class="st1" d="M962.8,477.5c14.7,0,26.8,12.1,26.8,26.8c0,14.7-12.1,26.8-26.8,26.8S936,519,936,504.3
		C936,489.6,948,477.5,962.8,477.5 M962.8,459.6c-24.6,0-44.7,20.1-44.7,44.7c0,24.6,20.1,44.7,44.7,44.7s44.7-20.1,44.7-44.7
		C1007.4,479.7,987.3,459.6,962.8,459.6L962.8,459.6z"/>
</g>
<line class="st2" x1="823.4" y1="401.6" x2="823.4" y2="432.8"/>
<line class="st2" x1="684.9" y1="432.8" x2="961.9" y2="432.8"/>
<line class="st2" x1="961.9" y1="468.6" x2="961.9" y2="423.9"/>
<line class="st2" x1="684.9" y1="468.6" x2="684.9" y2="423.9"/>
<line class="st2" x1="778.7" y1="468.6" x2="778.7" y2="432.8"/>
<line class="st2" x1="868.1" y1="468.6" x2="868.1" y2="432.8"/>
<circle class="st2" cx="823.4" cy="441.8" r="219.8"/>
</svg>
