<?xml version="1.0" encoding="utf-8"?>
<!-- Generator: Adobe Illustrator 25.2.0, SVG Export Plug-In . SVG Version: 6.00 Build 0)  -->
<svg version="1.1" id="Layer_1" xmlns="http://www.w3.org/2000/svg" xmlns:xlink="http://www.w3.org/1999/xlink" x="0px" y="0px"
	 viewBox="0 0 1600 900" style="enable-background:new 0 0 1600 900;" xml:space="preserve">
<style type="text/css">
	.st0{fill:#FFFFFF;}
	.st1{fill:none;stroke:#FFFFFF;stroke-width:8;stroke-miterlimit:10;}
</style>
<g>
	<circle class="st0" cx="1031" cy="594.2" r="33"/>
</g>
<line class="st1" x1="275" y1="450" x2="1325" y2="450"/>
<line class="st1" x1="800" y1="118" x2="800" y2="782"/>
<g>
	<circle class="st0" cx="790.8" cy="435" r="33"/>
</g>
<g>
	<circle class="st0" cx="671.4" cy="597" r="33"/>
</g>
<g>
	<circle class="st0" cx="569" cy="469.7" r="33"/>
</g>
<g>
	<circle class="st0" cx="966.1" cy="442.4" r="33"/>
</g>
<g>
	<circle class="st0" cx="840.9" cy="546.7" r="33"/>
</g>
<g>
	<circle class="st0" cx="719.6" cy="348.4" r="33"/>
</g>
<g>
	<circle class="st0" cx="595.7" cy="502.6" r="33"/>
</g>
<g>
	<circle class="st0" cx="566" cy="364.4" r="33"/>
</g>
<g>
	<circle class="st0" cx="842" cy="372.1" r="33"/>
</g>
<g>
	<circle class="st0" cx="999.7" cy="391.2" r="33"/>
</g>
<g>
	<circle class="st0" cx="596.3" cy="417.5" r="33"/>
</g>
<g>
	<circle class="st0" cx="807.9" cy="362.3" r="33"/>
</g>
<g>
	<circle class="st0" cx="717.5" cy="383" r="33"/>
</g>
<g>
	<circle class="st0" cx="983" cy="593.5" r="33"/>
</g>
<g>
	<circle class="st0" cx="1042" cy="463.3" r="33"/>
</g>
<g>
	<circle class="st0" cx="943.1" cy="552.7" r="33"/>
</g>
<g>
	<circle class="st0" cx="1020.3" cy="556.4" r="33"/>
</g>
<g>
	<circle class="st0" cx="637.2" cy="538.1" r="33"/>
</g>
<g>
	<circle class="st0" cx="811.5" cy="290.5" r="33"/>
</g>
<g>
	<circle class="st0" cx="865.4" cy="357.1" r="33"/>
</g>
<g>
	<circle class="st0" cx="1035.5" cy="555.9" r="33"/>
</g>
<g>
	<circle class="st0" cx="889.9" cy="453.1" r="33"/>
</g>
<g>
	<circle class="st0" cx="638.3" cy="391.1" r="33"/>
</g>
<g>
	<circle class="st0" cx="667.4" cy="533.1" r="33"/>
</g>
<g>
	<circle class="st0" cx="572.2" cy="512.8" r="33"/>
</g>
<g>
	<circle class="st0" cx="778.5" cy="503.6" r="33"/>
</g>
<g>
	<circle class="st0" cx="745.1" cy="300.9" r="33"/>
</g>
<g>
	<circle class="st0" cx="884.7" cy="366.1" r="33"/>
</g>
<g>
	<circle class="st0" cx="941.2" cy="487.4" r="33"/>
</g>
</svg>
