<?xml version="1.0" encoding="utf-8"?>
<!-- Generator: Adobe Illustrator 25.1.0, SVG Export Plug-In . SVG Version: 6.00 Build 0)  -->
<svg version="1.1" id="Layer_1" xmlns="http://www.w3.org/2000/svg" xmlns:xlink="http://www.w3.org/1999/xlink" x="0px" y="0px"
	 viewBox="0 0 200 100" style="enable-background:new 0 0 200 100;" xml:space="preserve">
<style type="text/css">
	.st0{fill:#A91C2B;}
	.st1{fill:#FFFFFF;}
	.st2{fill:none;}
	.st3{display:none;}
	.st4{display:inline;}
	.st5{font-family:'DMSans-Medium';}
	.st6{font-size:14px;}
</style>
<g>
	<circle class="st0" cx="31.6" cy="50.4" r="31.3"/>
	<g>
		<g>
			<g>
				<path class="st1" d="M21,34.5c-0.8,0-1.4-0.6-1.4-1.4s0.6-1.4,1.4-1.4s1.4,0.6,1.4,1.4S21.8,34.5,21,34.5z M21,32.5
					c-0.3,0-0.6,0.3-0.6,0.6s0.3,0.6,0.6,0.6c0.3,0,0.6-0.3,0.6-0.6S21.3,32.5,21,32.5z"/>
			</g>
			<g>
				<path class="st1" d="M24.4,31.1c-0.8,0-1.4-0.6-1.4-1.4s0.6-1.4,1.4-1.4s1.4,0.6,1.4,1.4C25.8,30.5,25.2,31.1,24.4,31.1z
					 M24.4,29.1c-0.3,0-0.6,0.3-0.6,0.6c0,0.3,0.3,0.6,0.6,0.6c0.3,0,0.6-0.3,0.6-0.6C25,29.5,24.8,29.1,24.4,29.1z"/>
			</g>
			<g>
				<path class="st1" d="M30.5,32.1c-0.8,0-1.4-0.6-1.4-1.4s0.6-1.4,1.4-1.4s1.4,0.6,1.4,1.4S31.2,32.1,30.5,32.1z M30.5,30.2
					c-0.3,0-0.6,0.3-0.6,0.6c0,0.3,0.3,0.6,0.6,0.6c0.3,0,0.6-0.3,0.6-0.6C31,30.5,30.8,30.2,30.5,30.2z"/>
			</g>
			<g>
				<path class="st1" d="M33.1,29.7c-0.8,0-1.4-0.6-1.4-1.4s0.6-1.4,1.4-1.4s1.4,0.6,1.4,1.4S33.8,29.7,33.1,29.7z M33.1,27.8
					c-0.3,0-0.6,0.3-0.6,0.6s0.3,0.6,0.6,0.6c0.3,0,0.6-0.3,0.6-0.6C33.7,28,33.5,27.8,33.1,27.8z"/>
			</g>
			<g>
				<path class="st1" d="M37.3,30.3c-0.8,0-1.4-0.6-1.4-1.4s0.6-1.4,1.4-1.4s1.4,0.6,1.4,1.4S38,30.3,37.3,30.3z M37.3,28.4
					c-0.3,0-0.6,0.3-0.6,0.6c0,0.3,0.3,0.6,0.6,0.6s0.6-0.3,0.6-0.6C37.9,28.6,37.6,28.4,37.3,28.4z"/>
			</g>
			<g>
				<path class="st1" d="M45.7,37.8c-0.8,0-1.4-0.6-1.4-1.4c0-0.8,0.6-1.4,1.4-1.4c0.8,0,1.4,0.6,1.4,1.4
					C47.1,37.2,46.5,37.8,45.7,37.8z M45.7,35.9c-0.3,0-0.6,0.3-0.6,0.6c0,0.3,0.3,0.6,0.6,0.6s0.6-0.3,0.6-0.6
					C46.3,36.2,46,35.9,45.7,35.9z"/>
			</g>
			<g>
				<path class="st1" d="M45.2,43.3c-0.8,0-1.4-0.6-1.4-1.4s0.6-1.4,1.4-1.4c0.8,0,1.4,0.6,1.4,1.4C46.5,42.8,45.9,43.3,45.2,43.3z
					 M45.2,41.4c-0.3,0-0.6,0.3-0.6,0.6c0,0.3,0.3,0.6,0.6,0.6c0.3,0,0.6-0.3,0.6-0.6C45.8,41.7,45.5,41.4,45.2,41.4z"/>
			</g>
			<g>
				<path class="st1" d="M41.4,32.5c-0.8,0-1.4-0.6-1.4-1.4c0-0.8,0.6-1.4,1.4-1.4c0.8,0,1.4,0.6,1.4,1.4
					C42.8,31.8,42.2,32.5,41.4,32.5z M41.4,30.5c-0.3,0-0.6,0.3-0.6,0.6c0,0.3,0.3,0.6,0.6,0.6s0.6-0.3,0.6-0.6
					C42,30.8,41.8,30.5,41.4,30.5z"/>
			</g>
			<g>
				<path class="st1" d="M28.1,28c-0.8,0-1.4-0.6-1.4-1.4s0.6-1.4,1.4-1.4c0.8,0,1.4,0.6,1.4,1.4S28.9,28,28.1,28z M28.1,26.1
					c-0.3,0-0.6,0.3-0.6,0.6c0,0.3,0.3,0.6,0.6,0.6c0.3,0,0.6-0.3,0.6-0.6C28.8,26.3,28.5,26.1,28.1,26.1z"/>
			</g>
			<g>
				<path class="st1" d="M17.1,38.9c-0.8,0-1.4-0.6-1.4-1.4s0.6-1.4,1.4-1.4c0.8,0,1.4,0.6,1.4,1.4S17.8,38.9,17.1,38.9z M17.1,36.9
					c-0.3,0-0.6,0.3-0.6,0.6c0,0.3,0.3,0.6,0.6,0.6c0.3,0,0.6-0.3,0.6-0.6C17.6,37.2,17.4,36.9,17.1,36.9z"/>
			</g>
			<g>
				<path class="st1" d="M15.3,44.7c-0.8,0-1.4-0.6-1.4-1.4c0-0.8,0.6-1.4,1.4-1.4c0.8,0,1.4,0.6,1.4,1.4
					C16.6,44.2,16,44.7,15.3,44.7z M15.3,42.8c-0.3,0-0.6,0.3-0.6,0.6s0.3,0.6,0.6,0.6s0.6-0.3,0.6-0.6
					C15.8,43.1,15.6,42.8,15.3,42.8z"/>
			</g>
			<g>
				<polygon class="st1" points="26.6,73.8 25.6,73.8 25.6,70.1 28.5,67.3 28.5,48.9 25.4,45.9 25.4,42.7 20.6,37.9 20.6,34.2 
					21.6,34.2 21.6,37.5 26.5,42.3 26.5,45.5 29.5,48.5 29.5,67.7 26.6,70.6 				"/>
			</g>
			<g>
				<polygon class="st1" points="25.5,46 23.4,44 19.7,44 19.7,40.9 17.3,38.5 18.1,37.8 20.7,40.5 20.7,43 23.9,43 26.3,45.3 				
					"/>
			</g>
			<g>
				<polygon class="st1" points="29.2,73.8 28.1,73.8 28.1,71.3 30.2,69.2 30.2,47.8 27.6,45.2 27.6,27.2 28.7,27.2 28.7,44.8 
					31.3,47.4 31.3,69.6 29.2,71.7 				"/>
			</g>
			<g>
				<polygon class="st1" points="27.6,40.5 23.8,36.8 23.8,30.8 24.8,30.8 24.8,36.3 28.3,39.8 				"/>
			</g>
			<g>
				<polygon class="st1" points="37.1,73.8 36,73.8 36,71.1 32,67.1 32,48 34.4,45.6 34.4,43.9 30,39.5 30,31.7 31,31.7 31,39 
					35.4,43.5 35.4,46 33,48.4 33,66.6 37.1,70.7 				"/>
			</g>
			<g>
				<polygon class="st1" points="35.4,43.7 34.4,43.7 34.4,36 36.8,33.6 36.8,30.2 37.8,30.2 37.8,34 35.4,36.5 				"/>
			</g>
			<g>
				<polygon class="st1" points="31,35.8 30.3,35.1 32.6,32.7 32.6,29.2 33.6,29.2 33.6,33.1 				"/>
			</g>
			<g>
				<polygon class="st1" points="38.8,73.8 37.8,73.8 37.8,70.5 34,66.7 34,49.3 37.8,45.5 37.8,38.2 41,35 41,32 42,32 42,35.4 
					38.8,38.6 38.8,45.9 35,49.7 35,66.3 38.8,70.1 				"/>
			</g>
			<g>
				<polygon class="st1" points="38.7,46 38,45.3 41,42.3 41,38 43,36.1 45,36.1 45,37.1 43.4,37.1 42,38.5 42,42.7 				"/>
			</g>
			<g>
				<rect x="16.3" y="43" class="st1" width="4.2" height="1"/>
			</g>
			<g>
				<polygon class="st1" points="32.3,73.8 31.3,73.8 31.3,72.8 33,71.1 33,68.1 34.1,68.1 34.1,71.5 32.3,73.3 				"/>
			</g>
			<g>
				<rect x="41.7" y="41.7" class="st1" width="2.7" height="1"/>
			</g>
			<g>
				<polygon class="st1" points="22.4,49.4 21.8,48.6 25.3,45.2 26,45.9 				"/>
			</g>
			<g>
				<path class="st1" d="M21.4,51c-0.8,0-1.4-0.6-1.4-1.4s0.6-1.4,1.4-1.4s1.4,0.6,1.4,1.4C22.8,50.4,22.2,51,21.4,51z M21.4,49
					c-0.3,0-0.6,0.3-0.6,0.6c0,0.3,0.3,0.6,0.6,0.6c0.3,0,0.6-0.3,0.6-0.6C22,49.4,21.8,49,21.4,49z"/>
			</g>
			<g>
				<rect x="37.4" y="46" class="st1" width="3.8" height="1"/>
			</g>
			<g>
				<path class="st1" d="M42,47.9c-0.8,0-1.4-0.6-1.4-1.4s0.6-1.4,1.4-1.4c0.8,0,1.4,0.6,1.4,1.4C43.3,47.2,42.8,47.9,42,47.9z
					 M42,45.8c-0.3,0-0.6,0.3-0.6,0.6S41.7,47,42,47c0.3,0,0.6-0.3,0.6-0.6C42.6,46.2,42.3,45.8,42,45.8z"/>
			</g>
		</g>
	</g>
</g>
<rect x="80.3" y="32.4" class="st2" width="113.3" height="77"/>
<g>
	<path d="M70.7,38.5V27.8h4c1.1,0,2,0.3,2.5,0.8c0.6,0.5,0.9,1.2,0.9,2c0,0.7-0.2,1.2-0.6,1.6c-0.4,0.4-0.8,0.7-1.3,0.8
		c0.4,0.1,0.8,0.2,1.1,0.5c0.3,0.2,0.6,0.6,0.8,0.9c0.2,0.4,0.3,0.8,0.3,1.2c0,0.6-0.1,1-0.4,1.5c-0.3,0.4-0.7,0.8-1.2,1
		c-0.5,0.3-1.2,0.4-1.9,0.4H70.7z M72.3,32.3h2.2c0.6,0,1.1-0.1,1.4-0.4c0.3-0.3,0.5-0.7,0.5-1.2c0-0.5-0.2-0.9-0.5-1.2
		c-0.3-0.3-0.8-0.4-1.5-0.4h-2.2V32.3z M72.3,37.1h2.3c0.7,0,1.2-0.2,1.5-0.5c0.4-0.3,0.5-0.7,0.5-1.3c0-0.6-0.2-1-0.6-1.3
		c-0.4-0.3-0.9-0.5-1.5-0.5h-2.3V37.1z"/>
	<path d="M82.4,38.6c-0.9,0-1.6-0.3-2.2-0.9c-0.5-0.6-0.8-1.4-0.8-2.6v-4.4h1.6v4.2c0,1.5,0.6,2.2,1.8,2.2c0.6,0,1.1-0.2,1.5-0.6
		c0.4-0.4,0.6-1,0.6-1.8v-3.9h1.6v7.6h-1.4L85,37.1c-0.2,0.5-0.6,0.8-1,1.1C83.5,38.5,83,38.6,82.4,38.6z"/>
	<path d="M91.6,38.6c-0.7,0-1.4-0.2-2-0.5c-0.6-0.3-1-0.8-1.4-1.4c-0.3-0.6-0.5-1.3-0.5-2.1c0-0.8,0.2-1.5,0.5-2.1
		c0.3-0.6,0.8-1.1,1.4-1.4c0.6-0.3,1.3-0.5,2-0.5c0.9,0,1.7,0.2,2.4,0.7c0.6,0.5,1,1.2,1.2,2h-1.7c-0.1-0.4-0.3-0.7-0.7-1
		c-0.3-0.2-0.8-0.4-1.2-0.4c-0.4,0-0.8,0.1-1.1,0.3c-0.3,0.2-0.6,0.5-0.8,0.9c-0.2,0.4-0.3,0.9-0.3,1.4c0,0.6,0.1,1,0.3,1.4
		c0.2,0.4,0.5,0.7,0.8,0.9c0.3,0.2,0.7,0.3,1.1,0.3c0.5,0,0.9-0.1,1.2-0.4c0.3-0.2,0.6-0.6,0.7-1h1.7c-0.2,0.8-0.6,1.5-1.2,2
		C93.4,38.4,92.6,38.6,91.6,38.6z"/>
	<path d="M99.9,38.6c-0.7,0-1.4-0.2-2-0.5c-0.6-0.3-1-0.8-1.4-1.4c-0.3-0.6-0.5-1.3-0.5-2.1c0-0.8,0.2-1.5,0.5-2.1
		c0.3-0.6,0.8-1.1,1.3-1.4c0.6-0.3,1.2-0.5,2-0.5c0.7,0,1.4,0.2,1.9,0.5c0.6,0.3,1,0.8,1.3,1.3c0.3,0.6,0.5,1.2,0.5,1.8
		c0,0.1,0,0.2,0,0.3c0,0.1,0,0.2,0,0.4h-5.9c0.1,0.7,0.3,1.3,0.7,1.7c0.4,0.4,0.9,0.6,1.5,0.6c0.5,0,0.8-0.1,1.2-0.3
		c0.3-0.2,0.5-0.5,0.7-0.8h1.6c-0.2,0.7-0.6,1.3-1.2,1.8S100.8,38.6,99.9,38.6z M99.9,32c-0.5,0-1,0.2-1.4,0.5s-0.7,0.8-0.8,1.4h4.3
		c0-0.6-0.2-1.1-0.6-1.4C100.9,32.2,100.5,32,99.9,32z"/>
	<path d="M104.7,38.5v-7.6h1.5l0.1,1.4c0.3-0.5,0.6-0.9,1.1-1.2c0.5-0.3,1-0.4,1.7-0.4v1.7h-0.4c-0.4,0-0.8,0.1-1.2,0.2
		c-0.4,0.1-0.6,0.4-0.8,0.7c-0.2,0.4-0.3,0.8-0.3,1.5v3.6H104.7z"/>
	<path d="M110.8,29.4c-0.3,0-0.6-0.1-0.8-0.3c-0.2-0.2-0.3-0.4-0.3-0.7c0-0.3,0.1-0.5,0.3-0.7c0.2-0.2,0.5-0.3,0.8-0.3
		c0.3,0,0.6,0.1,0.8,0.3c0.2,0.2,0.3,0.4,0.3,0.7c0,0.3-0.1,0.5-0.3,0.7C111.4,29.3,111.1,29.4,110.8,29.4z M110,38.5v-7.6h1.6v7.6
		H110z"/>
	<path d="M116,38.6c-0.9,0-1.6-0.3-2.2-0.9c-0.5-0.6-0.8-1.4-0.8-2.6v-4.4h1.6v4.2c0,1.5,0.6,2.2,1.8,2.2c0.6,0,1.1-0.2,1.5-0.6
		c0.4-0.4,0.6-1,0.6-1.8v-3.9h1.6v7.6h-1.4l-0.1-1.3c-0.2,0.5-0.6,0.8-1,1.1C117.1,38.5,116.6,38.6,116,38.6z"/>
	<path d="M124.7,38.6c-1,0-1.7-0.2-2.4-0.7c-0.6-0.5-1-1.1-1.1-1.9h1.6c0.1,0.3,0.3,0.6,0.6,0.9c0.3,0.2,0.7,0.4,1.2,0.4
		c0.5,0,0.8-0.1,1.1-0.3c0.2-0.2,0.3-0.4,0.3-0.7c0-0.4-0.2-0.6-0.5-0.8c-0.3-0.1-0.7-0.3-1.3-0.4c-0.4-0.1-0.9-0.2-1.3-0.4
		c-0.4-0.2-0.8-0.4-1.1-0.6c-0.3-0.3-0.4-0.7-0.4-1.1c0-0.7,0.3-1.2,0.8-1.7c0.5-0.4,1.2-0.7,2.1-0.7c0.8,0,1.5,0.2,2.1,0.6
		c0.5,0.4,0.8,1,0.9,1.7h-1.6c-0.1-0.3-0.2-0.6-0.5-0.8c-0.3-0.2-0.6-0.3-1-0.3c-0.4,0-0.7,0.1-0.9,0.3c-0.2,0.2-0.3,0.4-0.3,0.6
		c0,0.3,0.2,0.5,0.5,0.6c0.3,0.2,0.7,0.3,1.2,0.4c0.5,0.1,1,0.2,1.4,0.4c0.4,0.1,0.8,0.4,1,0.6c0.3,0.3,0.4,0.7,0.4,1.3
		c0,0.7-0.3,1.3-0.8,1.7S125.6,38.6,124.7,38.6z"/>
	<path d="M136.9,38.6c-1.1,0-2-0.2-2.7-0.7c-0.8-0.5-1.4-1.1-1.8-1.9s-0.6-1.8-0.6-2.9c0-1.1,0.2-2.1,0.6-2.9s1-1.5,1.8-1.9
		c0.8-0.5,1.7-0.7,2.7-0.7c1.3,0,2.3,0.3,3.1,0.9c0.8,0.6,1.3,1.5,1.5,2.6h-1.8c-0.1-0.6-0.4-1.1-0.9-1.5c-0.5-0.4-1.1-0.6-1.9-0.6
		c-1.1,0-1.9,0.4-2.5,1.1c-0.6,0.7-0.9,1.7-0.9,3c0,1.3,0.3,2.3,0.9,3c0.6,0.7,1.5,1.1,2.5,1.1c0.8,0,1.4-0.2,1.9-0.5
		c0.5-0.3,0.8-0.8,0.9-1.4h1.8c-0.2,1.1-0.7,1.9-1.5,2.5C139.2,38.3,138.2,38.6,136.9,38.6z"/>
	<path d="M146.2,38.6c-0.7,0-1.4-0.2-2-0.5c-0.6-0.3-1-0.8-1.4-1.4c-0.3-0.6-0.5-1.3-0.5-2.1c0-0.8,0.2-1.5,0.5-2.1
		c0.3-0.6,0.8-1.1,1.3-1.4c0.6-0.3,1.2-0.5,2-0.5c0.7,0,1.4,0.2,1.9,0.5c0.6,0.3,1,0.8,1.3,1.3c0.3,0.6,0.5,1.2,0.5,1.8
		c0,0.1,0,0.2,0,0.3c0,0.1,0,0.2,0,0.4h-5.9c0.1,0.7,0.3,1.3,0.7,1.7c0.4,0.4,0.9,0.6,1.5,0.6c0.5,0,0.8-0.1,1.2-0.3
		c0.3-0.2,0.5-0.5,0.7-0.8h1.6c-0.2,0.7-0.6,1.3-1.2,1.8C147.8,38.4,147.1,38.6,146.2,38.6z M146.2,32c-0.5,0-1,0.2-1.4,0.5
		c-0.4,0.3-0.7,0.8-0.8,1.4h4.3c0-0.6-0.2-1.1-0.6-1.4C147.2,32.2,146.7,32,146.2,32z"/>
	<path d="M151,38.5v-7.6h1.4l0.1,1.3c0.2-0.5,0.6-0.8,1-1.1c0.5-0.3,1-0.4,1.6-0.4c0.9,0,1.6,0.3,2.2,0.9c0.5,0.6,0.8,1.4,0.8,2.6
		v4.4h-1.6v-4.2c0-1.5-0.6-2.2-1.8-2.2c-0.6,0-1.1,0.2-1.5,0.6c-0.4,0.4-0.6,1-0.6,1.8v3.9H151z"/>
	<path d="M162.5,38.5c-0.7,0-1.3-0.2-1.8-0.5c-0.4-0.4-0.7-1-0.7-1.9v-3.7h-1.3v-1.4h1.3l0.2-1.9h1.4v1.9h2.1v1.4h-2.1V36
		c0,0.4,0.1,0.7,0.3,0.9c0.2,0.2,0.5,0.2,0.9,0.2h0.9v1.4H162.5z"/>
	<path d="M168.2,38.6c-0.7,0-1.4-0.2-2-0.5c-0.6-0.3-1-0.8-1.4-1.4c-0.3-0.6-0.5-1.3-0.5-2.1c0-0.8,0.2-1.5,0.5-2.1
		c0.3-0.6,0.8-1.1,1.3-1.4c0.6-0.3,1.2-0.5,2-0.5c0.7,0,1.4,0.2,1.9,0.5c0.6,0.3,1,0.8,1.3,1.3c0.3,0.6,0.5,1.2,0.5,1.8
		c0,0.1,0,0.2,0,0.3c0,0.1,0,0.2,0,0.4H166c0.1,0.7,0.3,1.3,0.7,1.7c0.4,0.4,0.9,0.6,1.5,0.6c0.5,0,0.8-0.1,1.2-0.3
		c0.3-0.2,0.5-0.5,0.7-0.8h1.6c-0.2,0.7-0.6,1.3-1.2,1.8C169.9,38.4,169.1,38.6,168.2,38.6z M168.2,32c-0.5,0-1,0.2-1.4,0.5
		s-0.7,0.8-0.8,1.4h4.3c0-0.6-0.2-1.1-0.6-1.4C169.3,32.2,168.8,32,168.2,32z"/>
	<path d="M173.1,38.5v-7.6h1.5l0.1,1.4c0.3-0.5,0.6-0.9,1.1-1.2c0.5-0.3,1-0.4,1.7-0.4v1.7H177c-0.4,0-0.8,0.1-1.2,0.2
		c-0.4,0.1-0.6,0.4-0.8,0.7c-0.2,0.4-0.3,0.8-0.3,1.5v3.6H173.1z"/>
	<path d="M181.9,38.5v-6.2h-1.1v-1.4h1.1v-1.1c0-0.8,0.2-1.4,0.6-1.8c0.4-0.4,1-0.5,1.8-0.5h0.8v1.4h-0.6c-0.4,0-0.6,0.1-0.8,0.2
		c-0.2,0.1-0.2,0.4-0.2,0.7v1.1h1.7v1.4h-1.7v6.2H181.9z"/>
	<path d="M189.6,38.6c-0.7,0-1.4-0.2-1.9-0.5c-0.6-0.3-1-0.8-1.4-1.4c-0.3-0.6-0.5-1.3-0.5-2.1c0-0.8,0.2-1.5,0.5-2.1
		c0.3-0.6,0.8-1.1,1.4-1.4c0.6-0.3,1.2-0.5,1.9-0.5c0.7,0,1.4,0.2,1.9,0.5c0.6,0.3,1,0.8,1.4,1.4c0.3,0.6,0.5,1.3,0.5,2.1
		c0,0.8-0.2,1.5-0.5,2.1c-0.3,0.6-0.8,1.1-1.4,1.4C190.9,38.5,190.3,38.6,189.6,38.6z M189.6,37.3c0.4,0,0.7-0.1,1.1-0.3
		c0.3-0.2,0.6-0.5,0.8-0.9c0.2-0.4,0.3-0.9,0.3-1.4c0-0.6-0.1-1-0.3-1.4c-0.2-0.4-0.5-0.7-0.8-0.9c-0.3-0.2-0.7-0.3-1.1-0.3
		c-0.4,0-0.7,0.1-1.1,0.3c-0.3,0.2-0.6,0.5-0.8,0.9c-0.2,0.4-0.3,0.9-0.3,1.4c0,0.6,0.1,1,0.3,1.4c0.2,0.4,0.5,0.7,0.8,0.9
		C188.8,37.2,189.2,37.3,189.6,37.3z"/>
	<path d="M194.6,38.5v-7.6h1.5l0.1,1.4c0.3-0.5,0.6-0.9,1.1-1.2c0.5-0.3,1-0.4,1.7-0.4v1.7h-0.4c-0.4,0-0.8,0.1-1.2,0.2
		c-0.4,0.1-0.6,0.4-0.8,0.7c-0.2,0.4-0.3,0.8-0.3,1.5v3.6H194.6z"/>
	<path d="M70.7,53.8V43h1.6v9.4h4.9v1.3H70.7z"/>
	<path d="M81.5,53.9c-0.7,0-1.4-0.2-2-0.5c-0.6-0.3-1-0.8-1.4-1.4c-0.3-0.6-0.5-1.3-0.5-2.1c0-0.8,0.2-1.5,0.5-2.1s0.8-1.1,1.3-1.4
		c0.6-0.3,1.2-0.5,2-0.5c0.7,0,1.4,0.2,1.9,0.5c0.6,0.3,1,0.8,1.3,1.3c0.3,0.6,0.5,1.2,0.5,1.8c0,0.1,0,0.2,0,0.3c0,0.1,0,0.2,0,0.4
		h-5.9c0.1,0.7,0.3,1.3,0.7,1.7c0.4,0.4,0.9,0.6,1.5,0.6c0.5,0,0.8-0.1,1.2-0.3c0.3-0.2,0.5-0.5,0.7-0.8H85
		c-0.2,0.7-0.6,1.3-1.2,1.8C83.2,53.7,82.4,53.9,81.5,53.9z M81.5,47.3c-0.5,0-1,0.2-1.4,0.5c-0.4,0.3-0.7,0.8-0.8,1.4h4.3
		c0-0.6-0.2-1.1-0.6-1.4C82.6,47.5,82.1,47.3,81.5,47.3z"/>
	<path d="M90.3,57.3c-0.7,0-1.3-0.1-1.8-0.3c-0.6-0.2-1-0.6-1.4-1c-0.4-0.4-0.6-1-0.7-1.7h1.6c0.1,0.5,0.4,0.9,0.8,1.1
		c0.4,0.3,0.9,0.4,1.5,0.4c0.7,0,1.2-0.2,1.7-0.6c0.5-0.4,0.7-1.1,0.7-1.9v-1c-0.2,0.4-0.6,0.7-1,1.1c-0.5,0.3-1,0.5-1.7,0.5
		c-0.7,0-1.4-0.2-1.9-0.5c-0.6-0.3-1-0.8-1.4-1.4c-0.3-0.6-0.5-1.3-0.5-2c0-0.8,0.2-1.4,0.5-2c0.3-0.6,0.8-1.1,1.4-1.4
		c0.6-0.3,1.2-0.5,1.9-0.5c0.6,0,1.2,0.1,1.7,0.4c0.5,0.3,0.9,0.6,1.1,1l0.2-1.2h1.5v7.1c0,0.9-0.2,1.6-0.5,2.2
		c-0.4,0.6-0.8,1-1.4,1.4C91.7,57.1,91,57.3,90.3,57.3z M90.1,52.5c0.5,0,0.9-0.1,1.3-0.3c0.4-0.2,0.7-0.5,0.9-0.9
		c0.2-0.4,0.3-0.8,0.3-1.3c0-0.5-0.1-0.9-0.3-1.3c-0.2-0.4-0.5-0.7-0.9-0.9c-0.4-0.2-0.8-0.3-1.3-0.3c-0.5,0-0.9,0.1-1.3,0.3
		c-0.4,0.2-0.7,0.5-0.9,0.9c-0.2,0.4-0.3,0.8-0.3,1.3c0,0.5,0.1,0.9,0.3,1.3c0.2,0.4,0.5,0.7,0.9,0.9C89.3,52.3,89.7,52.5,90.1,52.5
		z"/>
	<path d="M98.3,53.9c-0.6,0-1.2-0.1-1.6-0.3c-0.4-0.2-0.7-0.5-0.9-0.8c-0.2-0.4-0.3-0.7-0.3-1.2c0-0.7,0.3-1.3,0.9-1.7
		c0.6-0.4,1.4-0.6,2.4-0.6h2v-0.1c0-0.6-0.2-1-0.5-1.3c-0.3-0.3-0.7-0.4-1.2-0.4c-0.4,0-0.8,0.1-1.2,0.3c-0.3,0.2-0.5,0.5-0.6,1
		h-1.6c0.1-0.6,0.2-1,0.6-1.4c0.3-0.4,0.7-0.7,1.2-0.9c0.5-0.2,1-0.3,1.6-0.3c1.1,0,1.9,0.3,2.5,0.8c0.6,0.6,0.9,1.3,0.9,2.3v4.7
		H101l-0.1-1.3c-0.2,0.4-0.5,0.8-0.9,1.1C99.5,53.8,98.9,53.9,98.3,53.9z M98.6,52.6c0.4,0,0.8-0.1,1.1-0.3c0.3-0.2,0.5-0.5,0.7-0.8
		c0.2-0.3,0.3-0.7,0.3-1.1h-1.8c-0.6,0-1.1,0.1-1.4,0.3c-0.3,0.2-0.4,0.5-0.4,0.8c0,0.3,0.1,0.6,0.4,0.8
		C97.8,52.5,98.2,52.6,98.6,52.6z"/>
	<path d="M103.8,53.8v-11h1.6v11H103.8z"/>
	<path d="M112.7,53.8v-9.4h-3.2V43h7.9v1.3h-3.2v9.4H112.7z"/>
	<path d="M120.6,53.9c-0.7,0-1.4-0.2-2-0.5c-0.6-0.3-1-0.8-1.4-1.4c-0.3-0.6-0.5-1.3-0.5-2.1c0-0.8,0.2-1.5,0.5-2.1s0.8-1.1,1.3-1.4
		c0.6-0.3,1.2-0.5,2-0.5c0.7,0,1.4,0.2,1.9,0.5c0.6,0.3,1,0.8,1.3,1.3c0.3,0.6,0.5,1.2,0.5,1.8c0,0.1,0,0.2,0,0.3c0,0.1,0,0.2,0,0.4
		h-5.9c0.1,0.7,0.3,1.3,0.7,1.7c0.4,0.4,0.9,0.6,1.5,0.6c0.5,0,0.8-0.1,1.2-0.3c0.3-0.2,0.5-0.5,0.7-0.8h1.6
		c-0.2,0.7-0.6,1.3-1.2,1.8S121.5,53.9,120.6,53.9z M120.6,47.3c-0.5,0-1,0.2-1.4,0.5c-0.4,0.3-0.7,0.8-0.8,1.4h4.3
		c0-0.6-0.2-1.1-0.6-1.4C121.6,47.5,121.2,47.3,120.6,47.3z"/>
	<path d="M129,53.9c-0.7,0-1.4-0.2-2-0.5c-0.6-0.3-1-0.8-1.4-1.4c-0.3-0.6-0.5-1.3-0.5-2.1c0-0.8,0.2-1.5,0.5-2.1
		c0.3-0.6,0.8-1.1,1.4-1.4c0.6-0.3,1.3-0.5,2-0.5c0.9,0,1.7,0.2,2.4,0.7c0.6,0.5,1,1.2,1.2,2h-1.7c-0.1-0.4-0.3-0.7-0.7-1
		c-0.3-0.2-0.8-0.4-1.2-0.4c-0.4,0-0.8,0.1-1.1,0.3c-0.3,0.2-0.6,0.5-0.8,0.9c-0.2,0.4-0.3,0.9-0.3,1.4c0,0.6,0.1,1,0.3,1.4
		c0.2,0.4,0.5,0.7,0.8,0.9c0.3,0.2,0.7,0.3,1.1,0.3c0.5,0,0.9-0.1,1.2-0.4c0.3-0.2,0.6-0.6,0.7-1h1.7c-0.2,0.8-0.6,1.5-1.2,2
		C130.7,53.7,129.9,53.9,129,53.9z"/>
	<path d="M133.7,53.8v-11h1.6v4.6c0.3-0.4,0.6-0.8,1.1-1c0.5-0.2,1-0.4,1.5-0.4c0.9,0,1.6,0.3,2.1,0.9c0.5,0.6,0.8,1.4,0.8,2.6v4.4
		h-1.6v-4.2c0-1.5-0.6-2.2-1.8-2.2c-0.6,0-1.1,0.2-1.5,0.6c-0.4,0.4-0.6,1-0.6,1.8v3.9H133.7z"/>
	<path d="M142.2,53.8v-7.6h1.4l0.1,1.3c0.2-0.5,0.6-0.8,1-1.1c0.5-0.3,1-0.4,1.6-0.4c0.9,0,1.6,0.3,2.2,0.9c0.5,0.6,0.8,1.4,0.8,2.6
		v4.4h-1.6v-4.2c0-1.5-0.6-2.2-1.8-2.2c-0.6,0-1.1,0.2-1.5,0.6c-0.4,0.4-0.6,1-0.6,1.8v3.9H142.2z"/>
	<path d="M154.2,53.9c-0.7,0-1.4-0.2-1.9-0.5c-0.6-0.3-1-0.8-1.4-1.4c-0.3-0.6-0.5-1.3-0.5-2.1c0-0.8,0.2-1.5,0.5-2.1
		c0.3-0.6,0.8-1.1,1.4-1.4c0.6-0.3,1.2-0.5,1.9-0.5c0.7,0,1.4,0.2,1.9,0.5c0.6,0.3,1,0.8,1.4,1.4c0.3,0.6,0.5,1.3,0.5,2.1
		c0,0.8-0.2,1.5-0.5,2.1s-0.8,1.1-1.4,1.4C155.6,53.8,155,53.9,154.2,53.9z M154.2,52.5c0.4,0,0.7-0.1,1.1-0.3
		c0.3-0.2,0.6-0.5,0.8-0.9c0.2-0.4,0.3-0.9,0.3-1.4c0-0.6-0.1-1-0.3-1.4s-0.5-0.7-0.8-0.9c-0.3-0.2-0.7-0.3-1.1-0.3
		c-0.4,0-0.7,0.1-1.1,0.3c-0.3,0.2-0.6,0.5-0.8,0.9c-0.2,0.4-0.3,0.9-0.3,1.4c0,0.6,0.1,1,0.3,1.4c0.2,0.4,0.5,0.7,0.8,0.9
		C153.5,52.4,153.9,52.5,154.2,52.5z"/>
	<path d="M159.3,53.8v-11h1.6v11H159.3z"/>
	<path d="M165.9,53.9c-0.7,0-1.4-0.2-1.9-0.5c-0.6-0.3-1-0.8-1.4-1.4c-0.3-0.6-0.5-1.3-0.5-2.1c0-0.8,0.2-1.5,0.5-2.1
		c0.3-0.6,0.8-1.1,1.4-1.4c0.6-0.3,1.2-0.5,1.9-0.5c0.7,0,1.4,0.2,1.9,0.5c0.6,0.3,1,0.8,1.4,1.4c0.3,0.6,0.5,1.3,0.5,2.1
		c0,0.8-0.2,1.5-0.5,2.1s-0.8,1.1-1.4,1.4C167.3,53.8,166.7,53.9,165.9,53.9z M165.9,52.5c0.4,0,0.7-0.1,1.1-0.3
		c0.3-0.2,0.6-0.5,0.8-0.9c0.2-0.4,0.3-0.9,0.3-1.4c0-0.6-0.1-1-0.3-1.4c-0.2-0.4-0.5-0.7-0.8-0.9c-0.3-0.2-0.7-0.3-1.1-0.3
		c-0.4,0-0.7,0.1-1.1,0.3c-0.3,0.2-0.6,0.5-0.8,0.9c-0.2,0.4-0.3,0.9-0.3,1.4c0,0.6,0.1,1,0.3,1.4c0.2,0.4,0.5,0.7,0.8,0.9
		C165.2,52.4,165.5,52.5,165.9,52.5z"/>
	<path d="M174.9,57.3c-0.7,0-1.3-0.1-1.8-0.3c-0.6-0.2-1-0.6-1.4-1c-0.4-0.4-0.6-1-0.7-1.7h1.6c0.1,0.5,0.4,0.9,0.8,1.1
		c0.4,0.3,0.9,0.4,1.5,0.4c0.7,0,1.2-0.2,1.7-0.6c0.5-0.4,0.7-1.1,0.7-1.9v-1c-0.2,0.4-0.6,0.7-1,1.1c-0.5,0.3-1,0.5-1.7,0.5
		c-0.7,0-1.4-0.2-1.9-0.5c-0.6-0.3-1-0.8-1.4-1.4c-0.3-0.6-0.5-1.3-0.5-2c0-0.8,0.2-1.4,0.5-2c0.3-0.6,0.8-1.1,1.4-1.4
		c0.6-0.3,1.2-0.5,1.9-0.5c0.6,0,1.2,0.1,1.7,0.4c0.5,0.3,0.9,0.6,1.1,1l0.2-1.2h1.5v7.1c0,0.9-0.2,1.6-0.5,2.2
		c-0.4,0.6-0.8,1-1.4,1.4C176.3,57.1,175.6,57.3,174.9,57.3z M174.7,52.5c0.5,0,0.9-0.1,1.3-0.3c0.4-0.2,0.7-0.5,0.9-0.9
		c0.2-0.4,0.3-0.8,0.3-1.3c0-0.5-0.1-0.9-0.3-1.3c-0.2-0.4-0.5-0.7-0.9-0.9c-0.4-0.2-0.8-0.3-1.3-0.3c-0.5,0-0.9,0.1-1.3,0.3
		c-0.4,0.2-0.7,0.5-0.9,0.9c-0.2,0.4-0.3,0.8-0.3,1.3c0,0.5,0.1,0.9,0.3,1.3c0.2,0.4,0.5,0.7,0.9,0.9
		C173.8,52.3,174.3,52.5,174.7,52.5z"/>
	<path d="M181.2,57.1l1.8-4h-0.4l-3-7h1.8l2.3,5.6l2.4-5.6h1.7l-4.9,11H181.2z"/>
	<path d="M73.2,69.2c-0.6,0-1.2-0.1-1.6-0.3c-0.4-0.2-0.7-0.5-0.9-0.8c-0.2-0.4-0.3-0.7-0.3-1.2c0-0.7,0.3-1.3,0.9-1.7
		c0.6-0.4,1.4-0.6,2.4-0.6h2v-0.1c0-0.6-0.2-1-0.5-1.3c-0.3-0.3-0.7-0.4-1.2-0.4c-0.4,0-0.8,0.1-1.2,0.3c-0.3,0.2-0.5,0.5-0.6,1
		h-1.6c0.1-0.6,0.2-1,0.6-1.4c0.3-0.4,0.7-0.7,1.2-0.9c0.5-0.2,1-0.3,1.6-0.3c1.1,0,1.9,0.3,2.5,0.8c0.6,0.6,0.9,1.3,0.9,2.3V69
		h-1.4l-0.1-1.3c-0.2,0.4-0.5,0.8-0.9,1.1C74.4,69.1,73.9,69.2,73.2,69.2z M73.5,67.9c0.4,0,0.8-0.1,1.1-0.3
		c0.3-0.2,0.5-0.5,0.7-0.8c0.2-0.3,0.3-0.7,0.3-1.1h-1.8c-0.6,0-1.1,0.1-1.4,0.3c-0.3,0.2-0.4,0.5-0.4,0.8c0,0.3,0.1,0.6,0.4,0.8
		C72.7,67.8,73.1,67.9,73.5,67.9z"/>
	<path d="M78.7,69v-7.6h1.4l0.1,1.3c0.2-0.5,0.6-0.8,1-1.1c0.5-0.3,1-0.4,1.6-0.4c0.9,0,1.6,0.3,2.2,0.9c0.5,0.6,0.8,1.4,0.8,2.6V69
		h-1.6v-4.2c0-1.5-0.6-2.2-1.8-2.2c-0.6,0-1.1,0.2-1.5,0.6c-0.4,0.4-0.6,1-0.6,1.8V69H78.7z"/>
	<path d="M90.7,69.2c-0.7,0-1.4-0.2-1.9-0.5c-0.6-0.3-1-0.8-1.3-1.4c-0.3-0.6-0.5-1.3-0.5-2c0-0.8,0.2-1.4,0.5-2
		c0.3-0.6,0.8-1.1,1.3-1.4c0.6-0.3,1.2-0.5,2-0.5c0.6,0,1.1,0.1,1.6,0.4c0.5,0.2,0.8,0.6,1.1,1V58h1.6v11h-1.5l-0.2-1.2
		c-0.2,0.4-0.6,0.7-1,0.9C91.9,69.1,91.3,69.2,90.7,69.2z M91,67.8c0.7,0,1.3-0.2,1.7-0.7c0.4-0.5,0.7-1.1,0.7-1.9
		c0-0.8-0.2-1.4-0.7-1.9c-0.4-0.5-1-0.7-1.7-0.7s-1.3,0.2-1.7,0.7c-0.4,0.5-0.7,1.1-0.7,1.9c0,0.5,0.1,0.9,0.3,1.3
		c0.2,0.4,0.5,0.7,0.8,0.9C90.1,67.7,90.5,67.8,91,67.8z"/>
	<path d="M99.7,69V58.3h3.5c1.3,0,2.3,0.2,3.1,0.7c0.8,0.4,1.4,1.1,1.8,1.9c0.4,0.8,0.6,1.8,0.6,2.9c0,1.1-0.2,2-0.6,2.8
		c-0.4,0.8-1,1.4-1.8,1.8c-0.8,0.4-1.8,0.7-3.1,0.7H99.7z M101.3,67.7h1.8c1,0,1.7-0.2,2.3-0.5c0.6-0.3,1-0.8,1.2-1.4
		c0.2-0.6,0.4-1.3,0.4-2.1c0-0.8-0.1-1.5-0.4-2.1c-0.2-0.6-0.7-1.1-1.2-1.4c-0.6-0.3-1.3-0.5-2.3-0.5h-1.8V67.7z"/>
	<path d="M112.3,69.2c-0.6,0-1.2-0.1-1.6-0.3c-0.4-0.2-0.7-0.5-0.9-0.8c-0.2-0.4-0.3-0.7-0.3-1.2c0-0.7,0.3-1.3,0.9-1.7
		c0.6-0.4,1.4-0.6,2.4-0.6h2v-0.1c0-0.6-0.2-1-0.5-1.3c-0.3-0.3-0.7-0.4-1.2-0.4c-0.4,0-0.8,0.1-1.2,0.3c-0.3,0.2-0.5,0.5-0.6,1
		h-1.6c0.1-0.6,0.2-1,0.6-1.4c0.3-0.4,0.7-0.7,1.2-0.9c0.5-0.2,1-0.3,1.6-0.3c1.1,0,1.9,0.3,2.5,0.8c0.6,0.6,0.9,1.3,0.9,2.3V69H115
		l-0.1-1.3c-0.2,0.4-0.5,0.8-0.9,1.1C113.5,69.1,113,69.2,112.3,69.2z M112.7,67.9c0.4,0,0.8-0.1,1.1-0.3c0.3-0.2,0.5-0.5,0.7-0.8
		c0.2-0.3,0.3-0.7,0.3-1.1H113c-0.6,0-1.1,0.1-1.4,0.3c-0.3,0.2-0.4,0.5-0.4,0.8c0,0.3,0.1,0.6,0.4,0.8
		C111.9,67.8,112.2,67.9,112.7,67.9z"/>
	<path d="M120.8,69c-0.7,0-1.3-0.2-1.8-0.5c-0.4-0.4-0.7-1-0.7-1.9v-3.7h-1.3v-1.4h1.3l0.2-1.9h1.4v1.9h2.1v1.4H120v3.7
		c0,0.4,0.1,0.7,0.3,0.9c0.2,0.2,0.5,0.2,0.9,0.2h0.9V69H120.8z"/>
	<path d="M125.8,69.2c-0.6,0-1.2-0.1-1.6-0.3c-0.4-0.2-0.7-0.5-0.9-0.8c-0.2-0.4-0.3-0.7-0.3-1.2c0-0.7,0.3-1.3,0.9-1.7
		c0.6-0.4,1.4-0.6,2.4-0.6h2v-0.1c0-0.6-0.2-1-0.5-1.3c-0.3-0.3-0.7-0.4-1.2-0.4c-0.4,0-0.8,0.1-1.2,0.3c-0.3,0.2-0.5,0.5-0.6,1
		h-1.6c0.1-0.6,0.2-1,0.6-1.4c0.3-0.4,0.7-0.7,1.2-0.9c0.5-0.2,1-0.3,1.6-0.3c1.1,0,1.9,0.3,2.5,0.8c0.6,0.6,0.9,1.3,0.9,2.3V69
		h-1.4l-0.1-1.3c-0.2,0.4-0.5,0.8-0.9,1.1C127,69.1,126.4,69.2,125.8,69.2z M126.1,67.9c0.4,0,0.8-0.1,1.1-0.3
		c0.3-0.2,0.5-0.5,0.7-0.8c0.2-0.3,0.3-0.7,0.3-1.1h-1.8c-0.6,0-1.1,0.1-1.4,0.3c-0.3,0.2-0.4,0.5-0.4,0.8c0,0.3,0.1,0.6,0.4,0.8
		C125.3,67.8,125.6,67.9,126.1,67.9z"/>
	<path d="M138,69.2c-0.8,0-1.5-0.1-2.1-0.4c-0.6-0.3-1.1-0.7-1.4-1.2c-0.3-0.5-0.5-1.1-0.5-1.8h1.7c0,0.6,0.2,1.1,0.6,1.5
		s0.9,0.6,1.6,0.6c0.6,0,1.1-0.2,1.5-0.5s0.5-0.7,0.5-1.2c0-0.4-0.1-0.7-0.3-0.9c-0.2-0.2-0.4-0.4-0.7-0.6c-0.3-0.2-0.6-0.3-1-0.4
		c-0.4-0.1-0.8-0.3-1.2-0.4c-0.8-0.3-1.4-0.6-1.9-1.1c-0.4-0.4-0.6-1-0.6-1.7c0-0.6,0.1-1.1,0.4-1.6c0.3-0.4,0.7-0.8,1.2-1
		c0.5-0.2,1.1-0.4,1.8-0.4c0.7,0,1.3,0.1,1.8,0.4c0.5,0.3,0.9,0.6,1.2,1.1c0.3,0.5,0.4,1,0.5,1.6h-1.7c0-0.3-0.1-0.5-0.2-0.8
		c-0.1-0.2-0.4-0.5-0.6-0.6c-0.3-0.2-0.6-0.2-1-0.2c-0.5,0-0.9,0.1-1.3,0.4c-0.3,0.3-0.5,0.6-0.5,1.1c0,0.4,0.1,0.7,0.4,1
		c0.2,0.2,0.6,0.4,1,0.6c0.4,0.1,0.9,0.3,1.5,0.5c0.5,0.2,1,0.4,1.4,0.6c0.4,0.2,0.8,0.6,1,1s0.4,0.9,0.4,1.5c0,0.5-0.1,1-0.4,1.5
		c-0.3,0.5-0.7,0.8-1.2,1.1C139.5,69.1,138.8,69.2,138,69.2z"/>
	<path d="M146.3,69.2c-0.7,0-1.4-0.2-2-0.5c-0.6-0.3-1-0.8-1.4-1.4c-0.3-0.6-0.5-1.3-0.5-2.1c0-0.8,0.2-1.5,0.5-2.1
		c0.3-0.6,0.8-1.1,1.4-1.4c0.6-0.3,1.3-0.5,2-0.5c0.9,0,1.7,0.2,2.4,0.7c0.6,0.5,1,1.2,1.2,2h-1.7c-0.1-0.4-0.3-0.7-0.7-1
		c-0.3-0.2-0.8-0.4-1.2-0.4c-0.4,0-0.8,0.1-1.1,0.3c-0.3,0.2-0.6,0.5-0.8,0.9c-0.2,0.4-0.3,0.9-0.3,1.4c0,0.6,0.1,1,0.3,1.4
		c0.2,0.4,0.5,0.7,0.8,0.9c0.3,0.2,0.7,0.3,1.1,0.3c0.5,0,0.9-0.1,1.2-0.4s0.6-0.6,0.7-1h1.7c-0.2,0.8-0.6,1.5-1.2,2
		C148.1,69,147.3,69.2,146.3,69.2z"/>
	<path d="M151.9,60c-0.3,0-0.6-0.1-0.8-0.3c-0.2-0.2-0.3-0.4-0.3-0.7c0-0.3,0.1-0.5,0.3-0.7s0.5-0.3,0.8-0.3c0.3,0,0.6,0.1,0.8,0.3
		c0.2,0.2,0.3,0.4,0.3,0.7c0,0.3-0.1,0.5-0.3,0.7C152.5,59.9,152.2,60,151.9,60z M151.1,69v-7.6h1.6V69H151.1z"/>
	<path d="M157.8,69.2c-0.7,0-1.4-0.2-2-0.5c-0.6-0.3-1-0.8-1.4-1.4c-0.3-0.6-0.5-1.3-0.5-2.1c0-0.8,0.2-1.5,0.5-2.1
		c0.3-0.6,0.8-1.1,1.3-1.4c0.6-0.3,1.2-0.5,2-0.5c0.7,0,1.4,0.2,1.9,0.5c0.6,0.3,1,0.8,1.3,1.3c0.3,0.6,0.5,1.2,0.5,1.8
		c0,0.1,0,0.2,0,0.3c0,0.1,0,0.2,0,0.4h-5.9c0.1,0.7,0.3,1.3,0.7,1.7c0.4,0.4,0.9,0.6,1.5,0.6c0.5,0,0.8-0.1,1.2-0.3
		c0.3-0.2,0.5-0.5,0.7-0.8h1.6c-0.2,0.7-0.6,1.3-1.2,1.8S158.7,69.2,157.8,69.2z M157.8,62.6c-0.5,0-1,0.2-1.4,0.5
		c-0.4,0.3-0.7,0.8-0.8,1.4h4.3c0-0.6-0.2-1.1-0.6-1.4C158.8,62.8,158.4,62.6,157.8,62.6z"/>
	<path d="M162.6,69v-7.6h1.4l0.1,1.3c0.2-0.5,0.6-0.8,1-1.1c0.5-0.3,1-0.4,1.6-0.4c0.9,0,1.6,0.3,2.2,0.9c0.5,0.6,0.8,1.4,0.8,2.6
		V69h-1.6v-4.2c0-1.5-0.6-2.2-1.8-2.2c-0.6,0-1.1,0.2-1.5,0.6c-0.4,0.4-0.6,1-0.6,1.8V69H162.6z"/>
	<path d="M174.7,69.2c-0.7,0-1.4-0.2-2-0.5c-0.6-0.3-1-0.8-1.4-1.4c-0.3-0.6-0.5-1.3-0.5-2.1c0-0.8,0.2-1.5,0.5-2.1
		c0.3-0.6,0.8-1.1,1.4-1.4c0.6-0.3,1.3-0.5,2-0.5c0.9,0,1.7,0.2,2.4,0.7c0.6,0.5,1,1.2,1.2,2h-1.7c-0.1-0.4-0.3-0.7-0.7-1
		c-0.3-0.2-0.8-0.4-1.2-0.4c-0.4,0-0.8,0.1-1.1,0.3c-0.3,0.2-0.6,0.5-0.8,0.9c-0.2,0.4-0.3,0.9-0.3,1.4c0,0.6,0.1,1,0.3,1.4
		c0.2,0.4,0.5,0.7,0.8,0.9c0.3,0.2,0.7,0.3,1.1,0.3c0.5,0,0.9-0.1,1.2-0.4s0.6-0.6,0.7-1h1.7c-0.2,0.8-0.6,1.5-1.2,2
		C176.4,69,175.6,69.2,174.7,69.2z"/>
	<path d="M182.9,69.2c-0.7,0-1.4-0.2-2-0.5c-0.6-0.3-1-0.8-1.4-1.4c-0.3-0.6-0.5-1.3-0.5-2.1c0-0.8,0.2-1.5,0.5-2.1
		c0.3-0.6,0.8-1.1,1.3-1.4c0.6-0.3,1.2-0.5,2-0.5c0.7,0,1.4,0.2,1.9,0.5c0.6,0.3,1,0.8,1.3,1.3c0.3,0.6,0.5,1.2,0.5,1.8
		c0,0.1,0,0.2,0,0.3c0,0.1,0,0.2,0,0.4h-5.9c0.1,0.7,0.3,1.3,0.7,1.7c0.4,0.4,0.9,0.6,1.5,0.6c0.5,0,0.8-0.1,1.2-0.3
		c0.3-0.2,0.5-0.5,0.7-0.8h1.6c-0.2,0.7-0.6,1.3-1.2,1.8C184.6,69,183.8,69.2,182.9,69.2z M182.9,62.6c-0.5,0-1,0.2-1.4,0.5
		c-0.4,0.3-0.7,0.8-0.8,1.4h4.3c0-0.6-0.2-1.1-0.6-1.4C184,62.8,183.5,62.6,182.9,62.6z"/>
</g>
<text transform="matrix(1 0 0 1 69.631 38.5572)" class="st3"><tspan x="0" y="0" class="st4 st5 st6">Bucerius Center for</tspan><tspan x="0" y="14" class="st4 st5 st6">Legal Technology</tspan><tspan x="0" y="28" class="st4 st5 st6">and Data Science</tspan></text>
</svg>
