<?xml version="1.0" encoding="utf-8"?>
<!-- Generator: Adobe Illustrator 25.2.0, SVG Export Plug-In . SVG Version: 6.00 Build 0)  -->
<svg version="1.1" id="Layer_1" xmlns="http://www.w3.org/2000/svg" xmlns:xlink="http://www.w3.org/1999/xlink" x="0px" y="0px"
	 viewBox="0 0 1600 900" style="enable-background:new 0 0 1600 900;" xml:space="preserve">
<style type="text/css">
	.st0{fill:#FFFFFF;}
</style>
<g>
	<g>
		<polygon class="st0" points="587,627.5 587.5,446.6 756.6,393.7 756.1,574.8 		"/>
		<polygon class="st0" points="756.1,574.8 756.6,393.7 871.2,472.7 870.7,653.6 		"/>
		<polygon class="st0" points="701.7,706.2 587,627.5 756.1,574.8 870.7,653.6 		"/>
	</g>
	<g>
		<polygon class="st0" points="752.6,384.7 798.7,279.3 857.7,418.5 811.8,523.9 		"/>
		<polygon class="st0" points="811.8,523.9 857.7,418.5 1013,393.4 967.3,497.5 		"/>
		<polygon class="st0" points="857.7,418.5 798.7,279.3 953.8,254.2 1013,393.4 		"/>
	</g>
	<g>
		<polygon class="st0" points="756.6,393.7 641.2,371.9 627.4,257.7 743.1,279.6 		"/>
		<polygon class="st0" points="743.1,279.6 627.4,257.7 691.4,193.8 807,215.6 		"/>
		<polygon class="st0" points="820.3,330.2 756.6,393.7 743.1,279.6 807,215.6 		"/>
	</g>
</g>
</svg>
