<?xml version="1.0" encoding="utf-8"?>
<!-- Generator: Adobe Illustrator 24.1.3, SVG Export Plug-In . SVG Version: 6.00 Build 0)  -->
<svg version="1.1" id="Layer_1" xmlns="http://www.w3.org/2000/svg" xmlns:xlink="http://www.w3.org/1999/xlink" x="0px" y="0px"
	 viewBox="0 0 100 100" style="enable-background:new 0 0 100 100;" xml:space="preserve">
<style type="text/css">
	.st0{fill:#A91C2B;}
	.st1{fill:#FFFFFF;}
</style>
<circle class="st0" cx="50" cy="50" r="50"/>
<g>
	<g>
		<g>
			<path class="st1" d="M33,24.6c-1.2,0-2.2-1-2.2-2.2s1-2.2,2.2-2.2s2.2,1,2.2,2.2S34.2,24.6,33,24.6z M33,21.5
				c-0.5,0-0.9,0.4-0.9,0.9s0.4,0.9,0.9,0.9s0.9-0.4,0.9-0.9S33.5,21.5,33,21.5z"/>
		</g>
		<g>
			<path class="st1" d="M38.5,19.2c-1.2,0-2.2-1-2.2-2.2s1-2.2,2.2-2.2s2.2,1,2.2,2.2C40.7,18.3,39.7,19.2,38.5,19.2z M38.5,16.1
				c-0.5,0-0.9,0.4-0.9,0.9s0.4,1,0.9,1s0.9-0.4,0.9-0.9S39,16.1,38.5,16.1z"/>
		</g>
		<g>
			<path class="st1" d="M48.1,20.9c-1.2,0-2.2-1-2.2-2.2s1-2.2,2.2-2.2s2.2,1,2.2,2.2S49.3,20.9,48.1,20.9z M48.1,17.8
				c-0.5,0-0.9,0.4-0.9,0.9s0.4,0.9,0.9,0.9s0.9-0.4,0.9-0.9S48.7,17.8,48.1,17.8z"/>
		</g>
		<g>
			<path class="st1" d="M52.3,17c-1.2,0-2.2-1-2.2-2.2s1-2.2,2.2-2.2s2.2,1,2.2,2.2S53.5,17,52.3,17z M52.3,13.9
				c-0.5,0-0.9,0.4-0.9,0.9s0.4,0.9,0.9,0.9s0.9-0.4,0.9-0.9C53.3,14.3,52.9,13.9,52.3,13.9z"/>
		</g>
		<g>
			<path class="st1" d="M59,18c-1.2,0-2.2-1-2.2-2.2s1-2.2,2.2-2.2s2.2,1,2.2,2.2S60.2,18,59,18z M59,14.9c-0.5,0-0.9,0.4-0.9,0.9
				s0.4,0.9,0.9,0.9s0.9-0.4,0.9-0.9C60,15.3,59.5,14.9,59,14.9z"/>
		</g>
		<g>
			<path class="st1" d="M72.5,30c-1.2,0-2.2-1-2.2-2.2s1-2.2,2.2-2.2s2.2,1,2.2,2.2S73.7,30,72.5,30z M72.5,26.9
				c-0.5,0-0.9,0.4-0.9,0.9s0.4,0.9,0.9,0.9s0.9-0.4,0.9-0.9S73,26.9,72.5,26.9z"/>
		</g>
		<g>
			<path class="st1" d="M71.6,38.8c-1.2,0-2.2-1-2.2-2.2s1-2.2,2.2-2.2s2.2,1,2.2,2.2C73.8,37.9,72.8,38.8,71.6,38.8z M71.6,35.7
				c-0.5,0-0.9,0.4-0.9,0.9s0.4,0.9,0.9,0.9s0.9-0.4,0.9-0.9C72.6,36.1,72.1,35.7,71.6,35.7z"/>
		</g>
		<g>
			<path class="st1" d="M65.6,21.4c-1.2,0-2.2-1-2.2-2.2s1-2.2,2.2-2.2c1.2,0,2.2,1,2.2,2.2C67.8,20.4,66.8,21.4,65.6,21.4z
				 M65.6,18.3c-0.5,0-0.9,0.4-0.9,0.9s0.4,0.9,0.9,0.9s0.9-0.4,0.9-0.9S66.2,18.3,65.6,18.3z"/>
		</g>
		<g>
			<path class="st1" d="M44.4,14.3c-1.2,0-2.2-1-2.2-2.2s1-2.2,2.2-2.2s2.2,1,2.2,2.2S45.6,14.3,44.4,14.3z M44.4,11.2
				c-0.5,0-0.9,0.4-0.9,0.9s0.4,0.9,0.9,0.9s0.9-0.4,0.9-0.9C45.4,11.6,45,11.2,44.4,11.2z"/>
		</g>
		<g>
			<path class="st1" d="M26.7,31.7c-1.2,0-2.2-1-2.2-2.2s1-2.2,2.2-2.2s2.2,1,2.2,2.2S27.9,31.7,26.7,31.7z M26.7,28.5
				c-0.5,0-0.9,0.4-0.9,0.9s0.4,0.9,0.9,0.9s0.9-0.4,0.9-0.9C27.6,29,27.2,28.5,26.7,28.5z"/>
		</g>
		<g>
			<path class="st1" d="M23.8,41c-1.2,0-2.2-1-2.2-2.2s1-2.2,2.2-2.2s2.2,1,2.2,2.2C25.9,40.1,25,41,23.8,41z M23.8,37.9
				c-0.5,0-0.9,0.4-0.9,0.9s0.4,0.9,0.9,0.9s0.9-0.4,0.9-0.9C24.7,38.4,24.3,37.9,23.8,37.9z"/>
		</g>
		<g>
			<polygon class="st1" points="42,87.4 40.3,87.4 40.3,81.6 44.9,77.1 44.9,47.7 40,42.9 40,37.8 32.4,30.1 32.4,24.2 34,24.2 
				34,29.5 41.7,37.1 41.7,42.2 46.5,47 46.5,77.7 42,82.3 			"/>
		</g>
		<g>
			<polygon class="st1" points="40.2,43.1 36.9,39.8 30.9,39.8 30.9,34.9 27.1,31.1 28.3,29.9 32.5,34.2 32.5,38.2 37.6,38.2 
				41.4,42 			"/>
		</g>
		<g>
			<polygon class="st1" points="46.1,87.4 44.4,87.4 44.4,83.4 47.7,80.1 47.7,45.9 43.6,41.8 43.6,13 45.3,13 45.3,41.2 49.4,45.3 
				49.4,80.8 46.1,84.1 			"/>
		</g>
		<g>
			<polygon class="st1" points="43.5,34.3 37.5,28.3 37.5,18.7 39.1,18.7 39.1,27.6 44.6,33.1 			"/>
		</g>
		<g>
			<polygon class="st1" points="58.7,87.4 57,87.4 57,83.2 50.5,76.7 50.5,46.2 54.4,42.4 54.4,39.7 47.3,32.6 47.3,20.2 49,20.2 
				49,31.9 56,39 56,43.1 52.2,46.9 52.2,76 58.7,82.5 			"/>
		</g>
		<g>
			<polygon class="st1" points="56,39.3 54.4,39.3 54.4,27.1 58.2,23.3 58.2,17.8 59.9,17.8 59.9,23.9 56,27.8 			"/>
		</g>
		<g>
			<polygon class="st1" points="48.9,26.8 47.8,25.6 51.6,21.8 51.6,16.2 53.2,16.2 53.2,22.5 			"/>
		</g>
		<g>
			<polygon class="st1" points="61.4,87.4 59.8,87.4 59.8,82.2 53.7,76.2 53.7,48.3 59.8,42.2 59.8,30.5 64.9,25.4 64.9,20.7 
				66.6,20.7 66.6,26.1 61.5,31.2 61.5,42.9 55.4,48.9 55.4,75.5 61.4,81.5 			"/>
		</g>
		<g>
			<polygon class="st1" points="61.2,43.1 60.1,41.9 64.9,37.1 64.9,30.3 68.1,27.2 71.4,27.2 71.4,28.8 68.8,28.8 66.5,31 
				66.5,37.8 			"/>
		</g>
		<g>
			<rect x="25.5" y="38.2" class="st1" width="6.7" height="1.6"/>
		</g>
		<g>
			<polygon class="st1" points="51.1,87.4 49.4,87.4 49.4,85.9 52.2,83.1 52.2,78.4 53.9,78.4 53.9,83.8 51.1,86.6 			"/>
		</g>
		<g>
			<rect x="66.1" y="36.2" class="st1" width="4.3" height="1.6"/>
		</g>
		<g>
			<polygon class="st1" points="35.3,48.4 34.2,47.2 39.8,41.7 40.9,42.9 			"/>
		</g>
		<g>
			<path class="st1" d="M33.7,51.1c-1.2,0-2.2-1-2.2-2.2s1-2.2,2.2-2.2s2.2,1,2.2,2.2C35.8,50.1,34.9,51.1,33.7,51.1z M33.7,47.9
				c-0.5,0-0.9,0.4-0.9,0.9s0.4,0.9,0.9,0.9s0.9-0.4,0.9-0.9C34.6,48.4,34.2,47.9,33.7,47.9z"/>
		</g>
		<g>
			<rect x="59.2" y="43.1" class="st1" width="6" height="1.6"/>
		</g>
		<g>
			<path class="st1" d="M66.6,46c-1.2,0-2.2-1-2.2-2.2s1-2.2,2.2-2.2s2.2,1,2.2,2.2C68.7,45,67.8,46,66.6,46z M66.6,42.8
				c-0.5,0-0.9,0.4-0.9,0.9s0.4,0.9,0.9,0.9s0.9-0.4,0.9-0.9C67.5,43.3,67.1,42.8,66.6,42.8z"/>
		</g>
	</g>
</g>
</svg>
