<?xml version="1.0" encoding="utf-8"?>
<!-- Generator: Adobe Illustrator 25.1.0, SVG Export Plug-In . SVG Version: 6.00 Build 0)  -->
<svg version="1.1" id="Layer_1" xmlns="http://www.w3.org/2000/svg" xmlns:xlink="http://www.w3.org/1999/xlink" x="0px" y="0px"
	 viewBox="0 0 1024 768" style="enable-background:new 0 0 1024 768;" xml:space="preserve">
<style type="text/css">
	.st0{fill:#595959;}
	.st1{fill:#63C4DE;}
	.st2{fill:#E19213;}
	.st3{fill:#0095BF;}
	.st4{fill:#F8B133;}
	.st5{fill:#A91C2B;}
</style>
<g>
	<circle class="st0" cx="577.4" cy="137.9" r="29"/>
</g>
<g>
	<circle class="st0" cx="759.5" cy="450.3" r="29"/>
</g>
<g>
	<circle class="st0" cx="690.4" cy="493.2" r="29"/>
</g>
<g>
	<circle class="st0" cx="287.3" cy="326.4" r="29"/>
</g>
<g>
	<circle class="st0" cx="889.3" cy="661" r="29"/>
</g>
<g>
	<circle class="st0" cx="856.9" cy="383.1" r="29"/>
</g>
<g>
	<circle class="st0" cx="376.8" cy="116.7" r="29"/>
</g>
<g>
	<circle class="st1" cx="825.1" cy="66.8" r="29"/>
</g>
<g>
	<circle class="st2" cx="386.8" cy="69.6" r="29"/>
</g>
<g>
	<circle class="st1" cx="394.6" cy="148.6" r="29"/>
</g>
<g>
	<circle class="st1" cx="312.8" cy="92.6" r="29"/>
</g>
<g>
	<circle class="st1" cx="705.5" cy="520.3" r="29"/>
</g>
<g>
	<circle class="st1" cx="745.4" cy="91.1" r="29"/>
</g>
<g>
	<circle class="st1" cx="298.3" cy="441.2" r="29"/>
</g>
<g>
	<circle class="st1" cx="878.7" cy="401.7" r="29"/>
</g>
<g>
	<circle class="st3" cx="332.8" cy="505.2" r="29"/>
</g>
<g>
	<circle class="st3" cx="584.9" cy="329" r="29"/>
</g>
<g>
	<circle class="st3" cx="249.2" cy="100.6" r="29"/>
</g>
<g>
	<circle class="st3" cx="651.7" cy="265.6" r="29"/>
</g>
<g>
	<circle class="st3" cx="527.2" cy="164.9" r="29"/>
</g>
<g>
	<circle class="st3" cx="640.4" cy="539.4" r="29"/>
</g>
<g>
	<circle class="st3" cx="776.9" cy="321.5" r="29"/>
</g>
<g>
	<circle class="st3" cx="707.5" cy="443.7" r="29"/>
</g>
<g>
	<circle class="st3" cx="737" cy="525.8" r="29"/>
</g>
<g>
	<circle class="st4" cx="752" cy="274.2" r="29"/>
</g>
<g>
	<circle class="st4" cx="577.3" cy="177.4" r="29"/>
</g>
<g>
	<circle class="st4" cx="350.2" cy="185.6" r="29"/>
</g>
<g>
	<circle class="st4" cx="452.1" cy="211.7" r="29"/>
</g>
<g>
	<circle class="st4" cx="621.6" cy="550.2" r="29"/>
</g>
<g>
	<circle class="st4" cx="553.1" cy="544.7" r="29"/>
</g>
<g>
	<circle class="st4" cx="139.3" cy="403.4" r="29"/>
</g>
<g>
	<circle class="st4" cx="758.2" cy="683.6" r="29"/>
</g>
<g>
	<circle class="st4" cx="707.1" cy="446" r="29"/>
</g>
<g>
	<circle class="st2" cx="232.7" cy="152.4" r="29"/>
</g>
<g>
	<circle class="st4" cx="691.7" cy="149.4" r="29"/>
</g>
<g>
	<circle class="st4" cx="235.3" cy="97.8" r="29"/>
</g>
<g>
	<circle class="st4" cx="243.9" cy="164.8" r="29"/>
</g>
<g>
	<circle class="st4" cx="147.7" cy="190.7" r="29"/>
</g>
<g>
	<circle class="st5" cx="547.9" cy="539.5" r="29"/>
</g>
<g>
	<circle class="st5" cx="617.8" cy="164.1" r="29"/>
</g>
<g>
	<circle class="st5" cx="169.2" cy="525.9" r="29"/>
</g>
<g>
	<circle class="st5" cx="757.6" cy="436.8" r="29"/>
</g>
<g>
	<circle class="st2" cx="206.5" cy="505.2" r="29"/>
</g>
<g>
	<circle class="st5" cx="447.1" cy="350.4" r="29"/>
</g>
<g>
	<circle class="st5" cx="91.7" cy="145.3" r="29"/>
</g>
<g>
	<circle class="st5" cx="501" cy="247.8" r="29"/>
</g>
<g>
	<circle class="st2" cx="397.6" cy="237.9" r="29"/>
</g>
<g>
	<circle class="st2" cx="507.4" cy="643.2" r="29"/>
</g>
<g>
	<circle class="st5" cx="641.2" cy="356" r="29"/>
</g>
<g>
	<circle class="st5" cx="562.5" cy="480.8" r="29"/>
</g>
<g>
	<circle class="st5" cx="599.2" cy="595.5" r="29"/>
</g>
<g>
	<circle class="st2" cx="614.1" cy="362.9" r="29"/>
</g>
<g>
	<circle class="st5" cx="423.7" cy="210.8" r="29"/>
</g>
<g>
	<circle class="st5" cx="220" cy="251" r="29"/>
</g>
</svg>
