<?xml version="1.0" encoding="utf-8"?>
<!-- Generator: Adobe Illustrator 25.2.0, SVG Export Plug-In . SVG Version: 6.00 Build 0)  -->
<svg version="1.1" id="Layer_1" xmlns="http://www.w3.org/2000/svg" xmlns:xlink="http://www.w3.org/1999/xlink" x="0px" y="0px"
	 viewBox="0 0 1024 576" style="enable-background:new 0 0 1024 576;" xml:space="preserve">
<style type="text/css">
	.st0{fill:#BCBCBC;}
	.st1{fill:#A7C5EB;}
	.st2{fill:#F2B8CB;}
	.st3{fill:#949CDF;}
	.st4{fill:#F6ECF0;}
	.st5{fill:#CD5D7D;}
</style>
<g>
	<circle class="st0" cx="577.4" cy="108.3" r="29"/>
</g>
<g>
	<circle class="st0" cx="759.5" cy="420.7" r="29"/>
</g>
<g>
	<circle class="st0" cx="690.4" cy="463.6" r="29"/>
</g>
<g>
	<circle class="st0" cx="287.3" cy="296.8" r="29"/>
</g>
<g>
	<circle class="st0" cx="856.9" cy="353.5" r="29"/>
</g>
<g>
	<circle class="st0" cx="376.8" cy="87.1" r="29"/>
</g>
<g>
	<circle class="st1" cx="825.1" cy="37.2" r="29"/>
</g>
<g>
	<circle class="st2" cx="386.8" cy="40" r="29"/>
</g>
<g>
	<circle class="st1" cx="394.6" cy="119" r="29"/>
</g>
<g>
	<circle class="st1" cx="312.8" cy="63" r="29"/>
</g>
<g>
	<circle class="st1" cx="705.5" cy="490.7" r="29"/>
</g>
<g>
	<circle class="st1" cx="745.4" cy="61.5" r="29"/>
</g>
<g>
	<circle class="st1" cx="298.3" cy="411.6" r="29"/>
</g>
<g>
	<circle class="st1" cx="878.7" cy="372.1" r="29"/>
</g>
<g>
	<circle class="st3" cx="332.8" cy="475.6" r="29"/>
</g>
<g>
	<circle class="st3" cx="584.9" cy="299.4" r="29"/>
</g>
<g>
	<circle class="st3" cx="249.2" cy="71" r="29"/>
</g>
<g>
	<circle class="st3" cx="651.7" cy="236" r="29"/>
</g>
<g>
	<circle class="st3" cx="527.2" cy="135.3" r="29"/>
</g>
<g>
	<circle class="st3" cx="640.4" cy="509.8" r="29"/>
</g>
<g>
	<circle class="st3" cx="776.9" cy="291.9" r="29"/>
</g>
<g>
	<circle class="st3" cx="707.5" cy="414.1" r="29"/>
</g>
<g>
	<circle class="st3" cx="737" cy="496.2" r="29"/>
</g>
<g>
	<circle class="st4" cx="752" cy="244.6" r="29"/>
</g>
<g>
	<circle class="st4" cx="577.3" cy="147.8" r="29"/>
</g>
<g>
	<circle class="st4" cx="350.2" cy="156" r="29"/>
</g>
<g>
	<circle class="st4" cx="452.1" cy="182.1" r="29"/>
</g>
<g>
	<circle class="st4" cx="621.6" cy="520.6" r="29"/>
</g>
<g>
	<circle class="st4" cx="553.1" cy="515.1" r="29"/>
</g>
<g>
	<circle class="st4" cx="139.3" cy="373.8" r="29"/>
</g>
<g>
	<circle class="st4" cx="707.1" cy="416.4" r="29"/>
</g>
<g>
	<ellipse transform="matrix(0.1602 -0.9871 0.9871 0.1602 74.2113 332.8249)" class="st2" cx="232.7" cy="122.8" rx="29" ry="29"/>
</g>
<g>
	<circle class="st4" cx="691.7" cy="119.8" r="29"/>
</g>
<g>
	<ellipse transform="matrix(0.1602 -0.9871 0.9871 0.1602 130.2897 289.5372)" class="st4" cx="235.3" cy="68.2" rx="29" ry="29"/>
</g>
<g>
	<circle class="st4" cx="243.9" cy="135.2" r="29"/>
</g>
<g>
	<circle class="st4" cx="147.7" cy="161.1" r="29"/>
</g>
<g>
	<circle class="st5" cx="547.9" cy="509.9" r="29"/>
</g>
<g>
	<circle class="st5" cx="617.8" cy="134.5" r="29"/>
</g>
<g>
	<circle class="st5" cx="169.2" cy="496.3" r="29"/>
</g>
<g>
	<circle class="st5" cx="757.6" cy="407.2" r="29"/>
</g>
<g>
	<circle class="st2" cx="206.5" cy="475.6" r="29"/>
</g>
<g>
	<circle class="st5" cx="447.1" cy="320.8" r="29"/>
</g>
<g>
	<circle class="st5" cx="91.7" cy="115.7" r="29"/>
</g>
<g>
	<circle class="st5" cx="501" cy="218.2" r="29"/>
</g>
<g>
	<circle class="st2" cx="397.6" cy="208.3" r="29"/>
</g>
<g>
	<circle class="st5" cx="641.2" cy="326.4" r="29"/>
</g>
<g>
	<circle class="st5" cx="562.5" cy="451.2" r="29"/>
</g>
<g>
	<circle class="st2" cx="614.1" cy="333.3" r="29"/>
</g>
<g>
	<circle class="st5" cx="423.7" cy="181.2" r="29"/>
</g>
<g>
	<circle class="st5" cx="220" cy="221.4" r="29"/>
</g>
</svg>
