<?xml version="1.0" encoding="utf-8"?>
<!-- Generator: Adobe Illustrator 25.2.0, SVG Export Plug-In . SVG Version: 6.00 Build 0)  -->
<svg version="1.1" id="Layer_1" xmlns="http://www.w3.org/2000/svg" xmlns:xlink="http://www.w3.org/1999/xlink" x="0px" y="0px"
	 viewBox="0 0 1600 900" style="enable-background:new 0 0 1600 900;" xml:space="preserve">
<style type="text/css">
	.st0{fill:#FFFFFF;}
</style>
<g>
	<g>
		<g>
			<circle class="st0" cx="631.7" cy="603.8" r="50.8"/>
			<path class="st0" d="M631.7,553.5c27.7,0,50.2,22.5,50.2,50.2S659.4,654,631.7,654s-50.2-22.5-50.2-50.2S604,553.5,631.7,553.5
				 M631.7,552.5c-28.3,0-51.2,22.9-51.2,51.2s22.9,51.2,51.2,51.2c28.3,0,51.2-22.9,51.2-51.2S660,552.5,631.7,552.5L631.7,552.5z"
				/>
		</g>
		<g>
			<circle class="st0" cx="743.9" cy="603.8" r="50.8"/>
			<path class="st0" d="M743.9,553.5c27.7,0,50.2,22.5,50.2,50.2S771.6,654,743.9,654s-50.2-22.5-50.2-50.2S716.2,553.5,743.9,553.5
				 M743.9,552.5c-28.3,0-51.2,22.9-51.2,51.2s22.9,51.2,51.2,51.2c28.3,0,51.2-22.9,51.2-51.2S772.2,552.5,743.9,552.5L743.9,552.5
				z"/>
		</g>
		<g>
			<circle class="st0" cx="856.1" cy="603.8" r="50.8"/>
			<path class="st0" d="M856.1,553.5c27.7,0,50.2,22.5,50.2,50.2S883.8,654,856.1,654s-50.2-22.5-50.2-50.2S828.4,553.5,856.1,553.5
				 M856.1,552.5c-28.3,0-51.2,22.9-51.2,51.2s22.9,51.2,51.2,51.2c28.3,0,51.2-22.9,51.2-51.2S884.4,552.5,856.1,552.5L856.1,552.5
				z"/>
		</g>
		<g>
			<circle class="st0" cx="968.3" cy="603.8" r="50.8"/>
			<path class="st0" d="M968.3,553.5c27.7,0,50.2,22.5,50.2,50.2S996,654,968.3,654s-50.2-22.5-50.2-50.2S940.6,553.5,968.3,553.5
				 M968.3,552.5c-28.3,0-51.2,22.9-51.2,51.2S940,655,968.3,655c28.3,0,51.2-22.9,51.2-51.2S996.6,552.5,968.3,552.5L968.3,552.5z"
				/>
		</g>
	</g>
	<g>
		<circle class="st0" cx="687.8" cy="501.2" r="50.8"/>
		<path class="st0" d="M687.8,451c27.7,0,50.2,22.5,50.2,50.2s-22.5,50.2-50.2,50.2s-50.2-22.5-50.2-50.2S660.1,451,687.8,451
			 M687.8,450c-28.3,0-51.2,22.9-51.2,51.2c0,28.3,22.9,51.2,51.2,51.2c28.3,0,51.2-22.9,51.2-51.2C739,472.9,716.1,450,687.8,450
			L687.8,450z"/>
	</g>
	<g>
		<circle class="st0" cx="800" cy="501.2" r="50.8"/>
		<path class="st0" d="M800,451c27.7,0,50.2,22.5,50.2,50.2s-22.5,50.2-50.2,50.2s-50.2-22.5-50.2-50.2S772.3,451,800,451 M800,450
			c-28.3,0-51.2,22.9-51.2,51.2c0,28.3,22.9,51.2,51.2,51.2s51.2-22.9,51.2-51.2C851.2,472.9,828.3,450,800,450L800,450z"/>
	</g>
	<g>
		<circle class="st0" cx="912.2" cy="501.2" r="50.8"/>
		<path class="st0" d="M912.2,451c27.7,0,50.2,22.5,50.2,50.2s-22.5,50.2-50.2,50.2S862,529,862,501.2S884.5,451,912.2,451
			 M912.2,450c-28.3,0-51.2,22.9-51.2,51.2c0,28.3,22.9,51.2,51.2,51.2c28.3,0,51.2-22.9,51.2-51.2C963.5,472.9,940.5,450,912.2,450
			L912.2,450z"/>
	</g>
	<g>
		<g>
			<circle class="st0" cx="743.9" cy="398.8" r="50.8"/>
			<path class="st0" d="M743.9,348.5c27.7,0,50.2,22.5,50.2,50.2S771.6,449,743.9,449s-50.2-22.5-50.2-50.2S716.2,348.5,743.9,348.5
				 M743.9,347.5c-28.3,0-51.2,22.9-51.2,51.2s22.9,51.2,51.2,51.2c28.3,0,51.2-22.9,51.2-51.2S772.2,347.5,743.9,347.5L743.9,347.5
				z"/>
		</g>
		<g>
			<circle class="st0" cx="856.1" cy="398.8" r="50.8"/>
			<path class="st0" d="M856.1,348.5c27.7,0,50.2,22.5,50.2,50.2S883.8,449,856.1,449s-50.2-22.5-50.2-50.2S828.4,348.5,856.1,348.5
				 M856.1,347.5c-28.3,0-51.2,22.9-51.2,51.2s22.9,51.2,51.2,51.2c28.3,0,51.2-22.9,51.2-51.2S884.4,347.5,856.1,347.5L856.1,347.5
				z"/>
		</g>
	</g>
	<g>
		<circle class="st0" cx="800" cy="296.2" r="50.8"/>
		<path class="st0" d="M800,246c27.7,0,50.2,22.5,50.2,50.2s-22.5,50.2-50.2,50.2s-50.2-22.5-50.2-50.2S772.3,246,800,246 M800,245
			c-28.3,0-51.2,22.9-51.2,51.2s22.9,51.2,51.2,51.2s51.2-22.9,51.2-51.2S828.3,245,800,245L800,245z"/>
	</g>
</g>
</svg>
